<svg xmlns="http://www.w3.org/2000/svg" xmlns:xlink="http://www.w3.org/1999/xlink" xmlns:s="https://github.com/nturley/netlistsvg" width="492" height="285">
  <style>svg {
    stroke:#000;
    fill:none;
  }
  text {
    fill:#000;
    stroke:none;
    font-size:10px;
    font-weight: bold;
    font-family: "Courier New", monospace;
  }
  .nodelabel {
    text-anchor: middle;
  }
  .inputPortLabel {
    text-anchor: end;
  }
  .splitjoinBody {
    fill:#000;
  }</style>
  <g s:type="generic" transform="translate(237,210)" s:width="30" s:height="40" id="cell_add_clk">
    <text x="15" y="-4" class="nodelabel cell_add_clk" s:attribute="ref">full_adder</text>
    <rect width="30" height="60" s:generic="body" class="cell_add_clk"/>
    <g transform="translate(0,10)" s:x="0" s:y="10" s:pid="in0" id="port_add_clk~a">
      <text x="-3" y="-4" class="inputPortLabel cell_add_clk">a</text>
    </g>
    <g transform="translate(0,30)" s:x="0" s:y="10" s:pid="in0" id="port_add_clk~b">
      <text x="-3" y="-4" class="inputPortLabel cell_add_clk">b</text>
    </g>
    <g transform="translate(0,50)" s:x="0" s:y="10" s:pid="in0" id="port_add_clk~cin">
      <text x="-3" y="-4" class="inputPortLabel cell_add_clk">cin</text>
    </g>
    <g transform="translate(30,10)" s:x="30" s:y="10" s:pid="out0" id="port_add_clk~cout">
      <text x="5" y="-4" style="fill:#000; stroke:none" class="cell_add_clk">cout</text>
    </g>
    <g transform="translate(30,30)" s:x="30" s:y="10" s:pid="out0" id="port_add_clk~s">
      <text x="5" y="-4" style="fill:#000; stroke:none" class="cell_add_clk">s</text>
    </g>
  </g>
  <g s:type="generic" transform="translate(233,86.5)" s:width="30" s:height="40" id="cell_add_energy">
    <text x="15" y="-4" class="nodelabel cell_add_energy" s:attribute="ref">full_adder</text>
    <rect width="30" height="60" s:generic="body" class="cell_add_energy"/>
    <g transform="translate(0,10)" s:x="0" s:y="10" s:pid="in0" id="port_add_energy~a">
      <text x="-3" y="-4" class="inputPortLabel cell_add_energy">a</text>
    </g>
    <g transform="translate(0,30)" s:x="0" s:y="10" s:pid="in0" id="port_add_energy~b">
      <text x="-3" y="-4" class="inputPortLabel cell_add_energy">b</text>
    </g>
    <g transform="translate(0,50)" s:x="0" s:y="10" s:pid="in0" id="port_add_energy~cin">
      <text x="-3" y="-4" class="inputPortLabel cell_add_energy">cin</text>
    </g>
    <g transform="translate(30,10)" s:x="30" s:y="10" s:pid="out0" id="port_add_energy~s">
      <text x="5" y="-4" style="fill:#000; stroke:none" class="cell_add_energy">s</text>
    </g>
  </g>
  <g s:type="generic" transform="translate(341,66.5)" s:width="30" s:height="40" id="cell_m1">
    <text x="15" y="-4" class="nodelabel cell_m1" s:attribute="ref">mux2</text>
    <rect width="30" height="60" s:generic="body" class="cell_m1"/>
    <g transform="translate(0,10)" s:x="0" s:y="10" s:pid="in0" id="port_m1~d0">
      <text x="-3" y="-4" class="inputPortLabel cell_m1">d0</text>
    </g>
    <g transform="translate(0,30)" s:x="0" s:y="10" s:pid="in0" id="port_m1~d1">
      <text x="-3" y="-4" class="inputPortLabel cell_m1">d1</text>
    </g>
    <g transform="translate(0,50)" s:x="0" s:y="10" s:pid="in0" id="port_m1~s">
      <text x="-3" y="-4" class="inputPortLabel cell_m1">s</text>
    </g>
    <g transform="translate(30,10)" s:x="30" s:y="10" s:pid="out0" id="port_m1~y">
      <text x="5" y="-4" style="fill:#000; stroke:none" class="cell_m1">y</text>
    </g>
  </g>
  <g s:type="inputExt" transform="translate(119,163)" s:width="30" s:height="20" id="cell_old_clk">
    <text x="15" y="-4" class="nodelabel cell_old_clk" s:attribute="ref">old_clk</text>
    <s:alias val="$_inputExt_"/>
    <path d="M0,0 L0,20 L15,20 L30,10 L15,0 Z" class="cell_old_clk"/>
    <g s:x="28" s:y="10" s:pid="Y"/>
  </g>
  <g s:type="inputExt" transform="translate(12,67)" s:width="30" s:height="20" id="cell_people_count">
    <text x="15" y="-4" class="nodelabel cell_people_count" s:attribute="ref">people_count</text>
    <s:alias val="$_inputExt_"/>
    <path d="M0,0 L0,20 L15,20 L30,10 L15,0 Z" class="cell_people_count"/>
    <g s:x="28" s:y="10" s:pid="Y"/>
  </g>
  <g s:type="inputExt" transform="translate(119,22)" s:width="30" s:height="20" id="cell_old_energy">
    <text x="15" y="-4" class="nodelabel cell_old_energy" s:attribute="ref">old_energy</text>
    <s:alias val="$_inputExt_"/>
    <path d="M0,0 L0,20 L15,20 L30,10 L15,0 Z" class="cell_old_energy"/>
    <g s:x="28" s:y="10" s:pid="Y"/>
  </g>
  <g s:type="outputExt" transform="translate(414,230.5)" s:width="30" s:height="20" id="cell_next_clk">
    <text x="15" y="-4" class="nodelabel cell_next_clk" s:attribute="ref">next_clk</text>
    <s:alias val="$_outputExt_"/>
    <path d="M30,0 L30,20 L15,20 L0,10 L15,0 Z" class="cell_next_clk"/>
    <g s:x="0" s:y="10" s:pid="A"/>
  </g>
  <g s:type="outputExt" transform="translate(414,67)" s:width="30" s:height="20" id="cell_next_energy">
    <text x="15" y="-4" class="nodelabel cell_next_energy" s:attribute="ref">next_energy</text>
    <s:alias val="$_outputExt_"/>
    <path d="M30,0 L30,20 L15,20 L0,10 L15,0 Z" class="cell_next_energy"/>
    <g s:x="0" s:y="10" s:pid="A"/>
  </g>
  <g s:type="constant" transform="translate(12,132)" s:width="30" s:height="20" id="cell_0">
    <text x="15" y="-4" class="nodelabel cell_0" s:attribute="ref">0</text>
    <s:alias val="$_constant_"/>
    <rect width="30" height="20" class="cell_0"/>
    <g s:x="30" s:y="10" s:pid="Y"/>
  </g>
  <g s:type="constant" transform="translate(119,87)" s:width="30" s:height="20" id="cell_00000001">
    <text x="15" y="-4" class="nodelabel cell_00000001" s:attribute="ref">0x1</text>
    <s:alias val="$_constant_"/>
    <rect width="30" height="20" class="cell_00000001"/>
    <g s:x="30" s:y="10" s:pid="Y"/>
  </g>
  <g s:type="join" transform="translate(144,220)" s:width="4" s:height="40" id="cell_$join$,8,9,10,11,12,44,">
    <rect width="5" height="40" class="splitjoinBody" s:generic="body"/>
    <s:alias val="$_join_"/>
    <g s:x="5" s:y="20" s:pid="out"/>
    <g transform="translate(0,10)" s:x="0" s:y="10" s:pid="in0">
      <text x="-3" y="-4" class="inputPortLabel">0:4</text>
    </g>
    <g transform="translate(0,30)" s:x="0" s:y="10" s:pid="in0">
      <text x="-3" y="-4" class="inputPortLabel">5</text>
    </g>
  </g>
  <line x1="147" x2="189" y1="173" y2="173" class="net_2,3,4,5,6,7"/>
  <line x1="189" x2="189" y1="173" y2="220.5" class="net_2,3,4,5,6,7"/>
  <line x1="189" x2="237" y1="220.5" y2="220.5" class="net_2,3,4,5,6,7"/>
  <line x1="150" x2="237" y1="240.5" y2="240.5" class="net_8,9,10,11,12,44"/>
  <line x1="42" x2="94" y1="142" y2="142" class="net_44"/>
  <line x1="94" x2="94" y1="142" y2="270" class="net_44"/>
  <line x1="94" x2="189" y1="270" y2="270" class="net_44"/>
  <line x1="189" x2="189" y1="270" y2="260.5" class="net_44"/>
  <circle cx="94" cy="142" r="2" style="fill:#000" class="net_44"/>
  <line x1="189" x2="237" y1="260.5" y2="260.5" class="net_44"/>
  <line x1="42" x2="189" y1="142" y2="142" class="net_44"/>
  <line x1="189" x2="189" y1="142" y2="137" class="net_44"/>
  <line x1="189" x2="233" y1="137" y2="137" class="net_44"/>
  <line x1="42" x2="94" y1="142" y2="142" class="net_44"/>
  <line x1="94" x2="94" y1="142" y2="250.5" class="net_44"/>
  <circle cx="94" cy="250.5" r="2" style="fill:#000" class="net_44"/>
  <line x1="94" x2="144" y1="250.5" y2="250.5" class="net_44"/>
  <line x1="149" x2="233" y1="97" y2="97" class="net_46,47,48,49,50,51,52,53"/>
  <line x1="147" x2="189" y1="32" y2="32" class="net_13,14,15,16,17,18,19,20"/>
  <line x1="189" x2="189" y1="32" y2="117" class="net_13,14,15,16,17,18,19,20"/>
  <circle cx="189" cy="32" r="2" style="fill:#000" class="net_13,14,15,16,17,18,19,20"/>
  <line x1="189" x2="233" y1="117" y2="117" class="net_13,14,15,16,17,18,19,20"/>
  <line x1="147" x2="303" y1="32" y2="32" class="net_13,14,15,16,17,18,19,20"/>
  <line x1="303" x2="303" y1="32" y2="77" class="net_13,14,15,16,17,18,19,20"/>
  <line x1="303" x2="341" y1="77" y2="77" class="net_13,14,15,16,17,18,19,20"/>
  <line x1="264" x2="341" y1="97" y2="97" class="net_36,37,38,39,40,41,42,43"/>
  <line x1="268" x2="303" y1="220.5" y2="220.5" class="net_35"/>
  <line x1="303" x2="303" y1="220.5" y2="117" class="net_35"/>
  <line x1="303" x2="341" y1="117" y2="117" class="net_35"/>
  <line x1="268" x2="414" y1="240.5" y2="240.5" class="net_21,22,23,24,25,26"/>
  <line x1="372" x2="414" y1="77" y2="77" class="net_27,28,29,30,31,32,33,34"/>
  <line x1="40" x2="104" y1="77" y2="77" class="net_8,9,10,11,12"/>
  <line x1="104" x2="104" y1="77" y2="230.5" class="net_8,9,10,11,12"/>
  <line x1="104" x2="144" y1="230.5" y2="230.5" class="net_8,9,10,11,12"/>
</svg>
