<svg xmlns="http://www.w3.org/2000/svg" xmlns:xlink="http://www.w3.org/1999/xlink" xmlns:s="https://github.com/nturley/netlistsvg" width="1388" height="767">
  <style>svg {
    stroke:#000;
    fill:none;
  }
  text {
    fill:#000;
    stroke:none;
    font-size:10px;
    font-weight: bold;
    font-family: "Courier New", monospace;
  }
  .nodelabel {
    text-anchor: middle;
  }
  .inputPortLabel {
    text-anchor: end;
  }
  .splitjoinBody {
    fill:#000;
  }</style>
  <g s:type="and" transform="translate(145,374)" s:width="30" s:height="25" id="cell_$and$full_adder.sv:22$4">
    <s:alias val="$and"/>
    <s:alias val="$logic_and"/>
    <s:alias val="$_AND_"/>
    <path d="M0,0 L0,25 L15,25 A15 12.5 0 0 0 15,0 Z" class="cell_$and$full_adder.sv:22$4"/>
    <g s:x="0" s:y="5" s:pid="A"/>
    <g s:x="0" s:y="20" s:pid="B"/>
    <g s:x="30" s:y="12.5" s:pid="Y"/>
  </g>
  <g s:type="and" transform="translate(560,521)" s:width="30" s:height="25" id="cell_$and$full_adder.sv:28$11">
    <s:alias val="$and"/>
    <s:alias val="$logic_and"/>
    <s:alias val="$_AND_"/>
    <path d="M0,0 L0,25 L15,25 A15 12.5 0 0 0 15,0 Z" class="cell_$and$full_adder.sv:28$11"/>
    <g s:x="0" s:y="5" s:pid="A"/>
    <g s:x="0" s:y="20" s:pid="B"/>
    <g s:x="30" s:y="12.5" s:pid="Y"/>
  </g>
  <g s:type="and" transform="translate(690,567)" s:width="30" s:height="25" id="cell_$and$full_adder.sv:28$14">
    <s:alias val="$and"/>
    <s:alias val="$logic_and"/>
    <s:alias val="$_AND_"/>
    <path d="M0,0 L0,25 L15,25 A15 12.5 0 0 0 15,0 Z" class="cell_$and$full_adder.sv:28$14"/>
    <g s:x="0" s:y="5" s:pid="A"/>
    <g s:x="0" s:y="20" s:pid="B"/>
    <g s:x="30" s:y="12.5" s:pid="Y"/>
  </g>
  <g s:type="and" transform="translate(820,624)" s:width="30" s:height="25" id="cell_$and$full_adder.sv:28$17">
    <s:alias val="$and"/>
    <s:alias val="$logic_and"/>
    <s:alias val="$_AND_"/>
    <path d="M0,0 L0,25 L15,25 A15 12.5 0 0 0 15,0 Z" class="cell_$and$full_adder.sv:28$17"/>
    <g s:x="0" s:y="5" s:pid="A"/>
    <g s:x="0" s:y="20" s:pid="B"/>
    <g s:x="30" s:y="12.5" s:pid="Y"/>
  </g>
  <g s:type="and" transform="translate(950,670)" s:width="30" s:height="25" id="cell_$and$full_adder.sv:28$20">
    <s:alias val="$and"/>
    <s:alias val="$logic_and"/>
    <s:alias val="$_AND_"/>
    <path d="M0,0 L0,25 L15,25 A15 12.5 0 0 0 15,0 Z" class="cell_$and$full_adder.sv:28$20"/>
    <g s:x="0" s:y="5" s:pid="A"/>
    <g s:x="0" s:y="20" s:pid="B"/>
    <g s:x="30" s:y="12.5" s:pid="Y"/>
  </g>
  <g s:type="and" transform="translate(1080,700)" s:width="30" s:height="25" id="cell_$and$full_adder.sv:28$23">
    <s:alias val="$and"/>
    <s:alias val="$logic_and"/>
    <s:alias val="$_AND_"/>
    <path d="M0,0 L0,25 L15,25 A15 12.5 0 0 0 15,0 Z" class="cell_$and$full_adder.sv:28$23"/>
    <g s:x="0" s:y="5" s:pid="A"/>
    <g s:x="0" s:y="20" s:pid="B"/>
    <g s:x="30" s:y="12.5" s:pid="Y"/>
  </g>
  <g s:type="and" transform="translate(265,251)" s:width="30" s:height="25" id="cell_$and$full_adder.sv:28$5">
    <s:alias val="$and"/>
    <s:alias val="$logic_and"/>
    <s:alias val="$_AND_"/>
    <path d="M0,0 L0,25 L15,25 A15 12.5 0 0 0 15,0 Z" class="cell_$and$full_adder.sv:28$5"/>
    <g s:x="0" s:y="5" s:pid="A"/>
    <g s:x="0" s:y="20" s:pid="B"/>
    <g s:x="30" s:y="12.5" s:pid="Y"/>
  </g>
  <g s:type="and" transform="translate(430,308)" s:width="30" s:height="25" id="cell_$and$full_adder.sv:28$8">
    <s:alias val="$and"/>
    <s:alias val="$logic_and"/>
    <s:alias val="$_AND_"/>
    <path d="M0,0 L0,25 L15,25 A15 12.5 0 0 0 15,0 Z" class="cell_$and$full_adder.sv:28$8"/>
    <g s:x="0" s:y="5" s:pid="A"/>
    <g s:x="0" s:y="20" s:pid="B"/>
    <g s:x="30" s:y="12.5" s:pid="Y"/>
  </g>
  <g s:type="or" transform="translate(625,513.5)" s:width="30" s:height="25" id="cell_$or$full_adder.sv:28$12">
    <s:alias val="$or"/>
    <s:alias val="$logic_or"/>
    <s:alias val="$_OR_"/>
    <path d="M0,25 L0,25 L15,25 A15 12.5 0 0 0 15,0 L0,0" class="cell_$or$full_adder.sv:28$12"/>
    <path d="M0,0 A30 25 0 0 1 0,25" class="cell_$or$full_adder.sv:28$12"/>
    <g s:x="3" s:y="5" s:pid="A"/>
    <g s:x="3" s:y="20" s:pid="B"/>
    <g s:x="30" s:y="12.5" s:pid="Y"/>
  </g>
  <g s:type="or" transform="translate(755,559.5)" s:width="30" s:height="25" id="cell_$or$full_adder.sv:28$15">
    <s:alias val="$or"/>
    <s:alias val="$logic_or"/>
    <s:alias val="$_OR_"/>
    <path d="M0,25 L0,25 L15,25 A15 12.5 0 0 0 15,0 L0,0" class="cell_$or$full_adder.sv:28$15"/>
    <path d="M0,0 A30 25 0 0 1 0,25" class="cell_$or$full_adder.sv:28$15"/>
    <g s:x="3" s:y="5" s:pid="A"/>
    <g s:x="3" s:y="20" s:pid="B"/>
    <g s:x="30" s:y="12.5" s:pid="Y"/>
  </g>
  <g s:type="or" transform="translate(885,616.5)" s:width="30" s:height="25" id="cell_$or$full_adder.sv:28$18">
    <s:alias val="$or"/>
    <s:alias val="$logic_or"/>
    <s:alias val="$_OR_"/>
    <path d="M0,25 L0,25 L15,25 A15 12.5 0 0 0 15,0 L0,0" class="cell_$or$full_adder.sv:28$18"/>
    <path d="M0,0 A30 25 0 0 1 0,25" class="cell_$or$full_adder.sv:28$18"/>
    <g s:x="3" s:y="5" s:pid="A"/>
    <g s:x="3" s:y="20" s:pid="B"/>
    <g s:x="30" s:y="12.5" s:pid="Y"/>
  </g>
  <g s:type="or" transform="translate(1015,662.5)" s:width="30" s:height="25" id="cell_$or$full_adder.sv:28$21">
    <s:alias val="$or"/>
    <s:alias val="$logic_or"/>
    <s:alias val="$_OR_"/>
    <path d="M0,25 L0,25 L15,25 A15 12.5 0 0 0 15,0 L0,0" class="cell_$or$full_adder.sv:28$21"/>
    <path d="M0,0 A30 25 0 0 1 0,25" class="cell_$or$full_adder.sv:28$21"/>
    <g s:x="3" s:y="5" s:pid="A"/>
    <g s:x="3" s:y="20" s:pid="B"/>
    <g s:x="30" s:y="12.5" s:pid="Y"/>
  </g>
  <g s:type="or" transform="translate(1145,692.5)" s:width="30" s:height="25" id="cell_$or$full_adder.sv:28$24">
    <s:alias val="$or"/>
    <s:alias val="$logic_or"/>
    <s:alias val="$_OR_"/>
    <path d="M0,25 L0,25 L15,25 A15 12.5 0 0 0 15,0 L0,0" class="cell_$or$full_adder.sv:28$24"/>
    <path d="M0,0 A30 25 0 0 1 0,25" class="cell_$or$full_adder.sv:28$24"/>
    <g s:x="3" s:y="5" s:pid="A"/>
    <g s:x="3" s:y="20" s:pid="B"/>
    <g s:x="30" s:y="12.5" s:pid="Y"/>
  </g>
  <g s:type="or" transform="translate(365,243.5)" s:width="30" s:height="25" id="cell_$or$full_adder.sv:28$6">
    <s:alias val="$or"/>
    <s:alias val="$logic_or"/>
    <s:alias val="$_OR_"/>
    <path d="M0,25 L0,25 L15,25 A15 12.5 0 0 0 15,0 L0,0" class="cell_$or$full_adder.sv:28$6"/>
    <path d="M0,0 A30 25 0 0 1 0,25" class="cell_$or$full_adder.sv:28$6"/>
    <g s:x="3" s:y="5" s:pid="A"/>
    <g s:x="3" s:y="20" s:pid="B"/>
    <g s:x="30" s:y="12.5" s:pid="Y"/>
  </g>
  <g s:type="or" transform="translate(495,300.5)" s:width="30" s:height="25" id="cell_$or$full_adder.sv:28$9">
    <s:alias val="$or"/>
    <s:alias val="$logic_or"/>
    <s:alias val="$_OR_"/>
    <path d="M0,25 L0,25 L15,25 A15 12.5 0 0 0 15,0 L0,0" class="cell_$or$full_adder.sv:28$9"/>
    <path d="M0,0 A30 25 0 0 1 0,25" class="cell_$or$full_adder.sv:28$9"/>
    <g s:x="3" s:y="5" s:pid="A"/>
    <g s:x="3" s:y="20" s:pid="B"/>
    <g s:x="30" s:y="12.5" s:pid="Y"/>
  </g>
  <g s:type="reduce_xor" transform="translate(77,190.5)" s:width="33" s:height="25" id="cell_$xor$full_adder.sv:21$3">
    <s:alias val="$xor"/>
    <s:alias val="$reduce_xor"/>
    <s:alias val="$_XOR_"/>
    <path d="M3,0 A30 25 0 0 1 3,25 A30 25 0 0 0 33,12.5 A30 25 0 0 0 3,0" class="cell_$xor$full_adder.sv:21$3"/>
    <path d="M0,0 A30 25 0 0 1 0,25" class="cell_$xor$full_adder.sv:21$3"/>
    <g s:x="3" s:y="5" s:pid="A"/>
    <g s:x="3" s:y="20" s:pid="B"/>
    <g s:x="33" s:y="12.5" s:pid="Y"/>
  </g>
  <g s:type="reduce_xor" transform="translate(1210,72)" s:width="33" s:height="25" id="cell_$xor$full_adder.sv:29$10">
    <s:alias val="$xor"/>
    <s:alias val="$reduce_xor"/>
    <s:alias val="$_XOR_"/>
    <path d="M3,0 A30 25 0 0 1 3,25 A30 25 0 0 0 33,12.5 A30 25 0 0 0 3,0" class="cell_$xor$full_adder.sv:29$10"/>
    <path d="M0,0 A30 25 0 0 1 0,25" class="cell_$xor$full_adder.sv:29$10"/>
    <g s:x="3" s:y="5" s:pid="A"/>
    <g s:x="3" s:y="20" s:pid="B"/>
    <g s:x="33" s:y="12.5" s:pid="Y"/>
  </g>
  <g s:type="reduce_xor" transform="translate(1210,132)" s:width="33" s:height="25" id="cell_$xor$full_adder.sv:29$13">
    <s:alias val="$xor"/>
    <s:alias val="$reduce_xor"/>
    <s:alias val="$_XOR_"/>
    <path d="M3,0 A30 25 0 0 1 3,25 A30 25 0 0 0 33,12.5 A30 25 0 0 0 3,0" class="cell_$xor$full_adder.sv:29$13"/>
    <path d="M0,0 A30 25 0 0 1 0,25" class="cell_$xor$full_adder.sv:29$13"/>
    <g s:x="3" s:y="5" s:pid="A"/>
    <g s:x="3" s:y="20" s:pid="B"/>
    <g s:x="33" s:y="12.5" s:pid="Y"/>
  </g>
  <g s:type="reduce_xor" transform="translate(1210,192)" s:width="33" s:height="25" id="cell_$xor$full_adder.sv:29$16">
    <s:alias val="$xor"/>
    <s:alias val="$reduce_xor"/>
    <s:alias val="$_XOR_"/>
    <path d="M3,0 A30 25 0 0 1 3,25 A30 25 0 0 0 33,12.5 A30 25 0 0 0 3,0" class="cell_$xor$full_adder.sv:29$16"/>
    <path d="M0,0 A30 25 0 0 1 0,25" class="cell_$xor$full_adder.sv:29$16"/>
    <g s:x="3" s:y="5" s:pid="A"/>
    <g s:x="3" s:y="20" s:pid="B"/>
    <g s:x="33" s:y="12.5" s:pid="Y"/>
  </g>
  <g s:type="reduce_xor" transform="translate(1210,252)" s:width="33" s:height="25" id="cell_$xor$full_adder.sv:29$19">
    <s:alias val="$xor"/>
    <s:alias val="$reduce_xor"/>
    <s:alias val="$_XOR_"/>
    <path d="M3,0 A30 25 0 0 1 3,25 A30 25 0 0 0 33,12.5 A30 25 0 0 0 3,0" class="cell_$xor$full_adder.sv:29$19"/>
    <path d="M0,0 A30 25 0 0 1 0,25" class="cell_$xor$full_adder.sv:29$19"/>
    <g s:x="3" s:y="5" s:pid="A"/>
    <g s:x="3" s:y="20" s:pid="B"/>
    <g s:x="33" s:y="12.5" s:pid="Y"/>
  </g>
  <g s:type="reduce_xor" transform="translate(1210,312)" s:width="33" s:height="25" id="cell_$xor$full_adder.sv:29$22">
    <s:alias val="$xor"/>
    <s:alias val="$reduce_xor"/>
    <s:alias val="$_XOR_"/>
    <path d="M3,0 A30 25 0 0 1 3,25 A30 25 0 0 0 33,12.5 A30 25 0 0 0 3,0" class="cell_$xor$full_adder.sv:29$22"/>
    <path d="M0,0 A30 25 0 0 1 0,25" class="cell_$xor$full_adder.sv:29$22"/>
    <g s:x="3" s:y="5" s:pid="A"/>
    <g s:x="3" s:y="20" s:pid="B"/>
    <g s:x="33" s:y="12.5" s:pid="Y"/>
  </g>
  <g s:type="reduce_xor" transform="translate(1210,571)" s:width="33" s:height="25" id="cell_$xor$full_adder.sv:29$25">
    <s:alias val="$xor"/>
    <s:alias val="$reduce_xor"/>
    <s:alias val="$_XOR_"/>
    <path d="M3,0 A30 25 0 0 1 3,25 A30 25 0 0 0 33,12.5 A30 25 0 0 0 3,0" class="cell_$xor$full_adder.sv:29$25"/>
    <path d="M0,0 A30 25 0 0 1 0,25" class="cell_$xor$full_adder.sv:29$25"/>
    <g s:x="3" s:y="5" s:pid="A"/>
    <g s:x="3" s:y="20" s:pid="B"/>
    <g s:x="33" s:y="12.5" s:pid="Y"/>
  </g>
  <g s:type="reduce_xor" transform="translate(1210,730)" s:width="33" s:height="25" id="cell_$xor$full_adder.sv:29$28">
    <s:alias val="$xor"/>
    <s:alias val="$reduce_xor"/>
    <s:alias val="$_XOR_"/>
    <path d="M3,0 A30 25 0 0 1 3,25 A30 25 0 0 0 33,12.5 A30 25 0 0 0 3,0" class="cell_$xor$full_adder.sv:29$28"/>
    <path d="M0,0 A30 25 0 0 1 0,25" class="cell_$xor$full_adder.sv:29$28"/>
    <g s:x="3" s:y="5" s:pid="A"/>
    <g s:x="3" s:y="20" s:pid="B"/>
    <g s:x="33" s:y="12.5" s:pid="Y"/>
  </g>
  <g s:type="reduce_xor" transform="translate(1210,12)" s:width="33" s:height="25" id="cell_$xor$full_adder.sv:29$7">
    <s:alias val="$xor"/>
    <s:alias val="$reduce_xor"/>
    <s:alias val="$_XOR_"/>
    <path d="M3,0 A30 25 0 0 1 3,25 A30 25 0 0 0 33,12.5 A30 25 0 0 0 3,0" class="cell_$xor$full_adder.sv:29$7"/>
    <path d="M0,0 A30 25 0 0 1 0,25" class="cell_$xor$full_adder.sv:29$7"/>
    <g s:x="3" s:y="5" s:pid="A"/>
    <g s:x="3" s:y="20" s:pid="B"/>
    <g s:x="33" s:y="12.5" s:pid="Y"/>
  </g>
  <g s:type="inputExt" transform="translate(12,319)" s:width="30" s:height="20" id="cell_a">
    <text x="15" y="-4" class="nodelabel cell_a" s:attribute="ref">a</text>
    <s:alias val="$_inputExt_"/>
    <path d="M0,0 L0,20 L15,20 L30,10 L15,0 Z" class="cell_a"/>
    <g s:x="28" s:y="10" s:pid="Y"/>
  </g>
  <g s:type="inputExt" transform="translate(12,384)" s:width="30" s:height="20" id="cell_b">
    <text x="15" y="-4" class="nodelabel cell_b" s:attribute="ref">b</text>
    <s:alias val="$_inputExt_"/>
    <path d="M0,0 L0,20 L15,20 L30,10 L15,0 Z" class="cell_b"/>
    <g s:x="28" s:y="10" s:pid="Y"/>
  </g>
  <g s:type="inputExt" transform="translate(145,22)" s:width="30" s:height="20" id="cell_cin">
    <text x="15" y="-4" class="nodelabel cell_cin" s:attribute="ref">cin</text>
    <s:alias val="$_inputExt_"/>
    <path d="M0,0 L0,20 L15,20 L30,10 L15,0 Z" class="cell_cin"/>
    <g s:x="28" s:y="10" s:pid="Y"/>
  </g>
  <g s:type="outputExt" transform="translate(1346,463.5)" s:width="30" s:height="20" id="cell_s">
    <text x="15" y="-4" class="nodelabel cell_s" s:attribute="ref">s</text>
    <s:alias val="$_outputExt_"/>
    <path d="M30,0 L30,20 L15,20 L0,10 L15,0 Z" class="cell_s"/>
    <g s:x="0" s:y="10" s:pid="A"/>
  </g>
  <g s:type="outputExt" transform="translate(1346,695)" s:width="30" s:height="20" id="cell_cout">
    <text x="15" y="-4" class="nodelabel cell_cout" s:attribute="ref">cout</text>
    <s:alias val="$_outputExt_"/>
    <path d="M30,0 L30,20 L15,20 L0,10 L15,0 Z" class="cell_cout"/>
    <g s:x="0" s:y="10" s:pid="A"/>
  </g>
  <g s:type="join" transform="translate(1303,453)" s:width="4" s:height="40" id="cell_$join$,19,20,21,22,23,24,25,26,">
    <rect width="5" height="160" class="splitjoinBody" s:generic="body"/>
    <s:alias val="$_join_"/>
    <g s:x="5" s:y="20" s:pid="out"/>
    <g transform="translate(0,10)" s:x="0" s:y="10" s:pid="in0">
      <text x="-3" y="-4" class="inputPortLabel">0</text>
    </g>
    <g transform="translate(0,30)" s:x="0" s:y="10" s:pid="in0">
      <text x="-3" y="-4" class="inputPortLabel">1</text>
    </g>
    <g transform="translate(0,50)" s:x="0" s:y="10" s:pid="in0">
      <text x="-3" y="-4" class="inputPortLabel">2</text>
    </g>
    <g transform="translate(0,70)" s:x="0" s:y="10" s:pid="in0">
      <text x="-3" y="-4" class="inputPortLabel">3</text>
    </g>
    <g transform="translate(0,90)" s:x="0" s:y="10" s:pid="in0">
      <text x="-3" y="-4" class="inputPortLabel">4</text>
    </g>
    <g transform="translate(0,110)" s:x="0" s:y="10" s:pid="in0">
      <text x="-3" y="-4" class="inputPortLabel">5</text>
    </g>
    <g transform="translate(0,130)" s:x="0" s:y="10" s:pid="in0">
      <text x="-3" y="-4" class="inputPortLabel">6</text>
    </g>
    <g transform="translate(0,150)" s:x="0" s:y="10" s:pid="in0">
      <text x="-3" y="-4" class="inputPortLabel">7</text>
    </g>
  </g>
  <g s:type="split" transform="translate(161.42857142857142,182.5)" s:width="5" s:height="40" id="cell_$split$,51,53,36,39,42,45,48,56,">
    <rect width="5" height="160" class="splitjoinBody" s:generic="body"/>
    <s:alias val="$_split_"/>
    <g s:x="0" s:y="20" s:pid="in"/>
    <g transform="translate(4,10)" s:x="4" s:y="10" s:pid="out0">
      <text x="5" y="-4">2</text>
    </g>
    <g transform="translate(4,30)" s:x="4" s:y="10" s:pid="out0">
      <text x="5" y="-4">3</text>
    </g>
    <g transform="translate(4,50)" s:x="4" s:y="10" s:pid="out0">
      <text x="5" y="-4">4</text>
    </g>
    <g transform="translate(4,70)" s:x="4" s:y="10" s:pid="out0">
      <text x="5" y="-4">5</text>
    </g>
    <g transform="translate(4,90)" s:x="4" s:y="10" s:pid="out0">
      <text x="5" y="-4">6</text>
    </g>
    <g transform="translate(4,110)" s:x="4" s:y="10" s:pid="out0">
      <text x="5" y="-4">0</text>
    </g>
    <g transform="translate(4,130)" s:x="4" s:y="10" s:pid="out0">
      <text x="5" y="-4">1</text>
    </g>
    <g transform="translate(4,150)" s:x="4" s:y="10" s:pid="out0">
      <text x="5" y="-4">7</text>
    </g>
  </g>
  <g s:type="split" transform="translate(281.1666666666667,366)" s:width="5" s:height="40" id="cell_$split$,28,29,30,31,32,33,34,35,">
    <rect width="5" height="140" class="splitjoinBody" s:generic="body"/>
    <s:alias val="$_split_"/>
    <g s:x="0" s:y="20" s:pid="in"/>
    <g transform="translate(4,10)" s:x="4" s:y="10" s:pid="out0">
      <text x="5" y="-4">2</text>
    </g>
    <g transform="translate(4,30)" s:x="4" s:y="10" s:pid="out0">
      <text x="5" y="-4">3</text>
    </g>
    <g transform="translate(4,50)" s:x="4" s:y="10" s:pid="out0">
      <text x="5" y="-4">4</text>
    </g>
    <g transform="translate(4,70)" s:x="4" s:y="10" s:pid="out0">
      <text x="5" y="-4">5</text>
    </g>
    <g transform="translate(4,90)" s:x="4" s:y="10" s:pid="out0">
      <text x="5" y="-4">6</text>
    </g>
    <g transform="translate(4,110)" s:x="4" s:y="10" s:pid="out0">
      <text x="5" y="-4">0</text>
    </g>
    <g transform="translate(4,130)" s:x="4" s:y="10" s:pid="out0">
      <text x="5" y="-4">1</text>
    </g>
  </g>
  <line x1="40" x2="120" y1="329" y2="329" class="net_2,3,4,5,6,7,8,9"/>
  <line x1="120" x2="120" y1="329" y2="379" class="net_2,3,4,5,6,7,8,9"/>
  <line x1="120" x2="145" y1="379" y2="379" class="net_2,3,4,5,6,7,8,9"/>
  <line x1="40" x2="52" y1="329" y2="329" class="net_2,3,4,5,6,7,8,9"/>
  <line x1="52" x2="52" y1="329" y2="195.5" class="net_2,3,4,5,6,7,8,9"/>
  <circle cx="52" cy="329" r="2" style="fill:#000" class="net_2,3,4,5,6,7,8,9"/>
  <line x1="52" x2="80" y1="195.5" y2="195.5" class="net_2,3,4,5,6,7,8,9"/>
  <line x1="40" x2="145" y1="394" y2="394" class="net_10,11,12,13,14,15,16,17"/>
  <line x1="40" x2="62" y1="394" y2="394" class="net_10,11,12,13,14,15,16,17"/>
  <line x1="62" x2="62" y1="394" y2="210.5" class="net_10,11,12,13,14,15,16,17"/>
  <circle cx="62" cy="394" r="2" style="fill:#000" class="net_10,11,12,13,14,15,16,17"/>
  <line x1="62" x2="80" y1="210.5" y2="210.5" class="net_10,11,12,13,14,15,16,17"/>
  <line x1="165.92857142857142" x2="165.92857142857142" y1="192.5" y2="137" class="net_36"/>
  <line x1="165.92857142857142" x2="235" y1="137" y2="137" class="net_36"/>
  <line x1="235" x2="235" y1="137" y2="526" class="net_36"/>
  <circle cx="235" cy="137" r="2" style="fill:#000" class="net_36"/>
  <line x1="235" x2="560" y1="526" y2="526" class="net_36"/>
  <line x1="165.92857142857142" x2="165.92857142857142" y1="192.5" y2="137" class="net_36"/>
  <line x1="165.92857142857142" x2="1213" y1="137" y2="137" class="net_36"/>
  <line x1="525" x2="535" y1="313" y2="313" class="net_37"/>
  <line x1="535" x2="535" y1="313" y2="541" class="net_37"/>
  <circle cx="535" cy="313" r="2" style="fill:#000" class="net_37"/>
  <line x1="535" x2="560" y1="541" y2="541" class="net_37"/>
  <line x1="525" x2="535" y1="313" y2="313" class="net_37"/>
  <line x1="535" x2="535" y1="313" y2="152" class="net_37"/>
  <line x1="535" x2="1213" y1="152" y2="152" class="net_37"/>
  <line x1="166.42857142857142" x2="225" y1="213" y2="213" class="net_39"/>
  <line x1="225" x2="225" y1="213" y2="572" class="net_39"/>
  <circle cx="225" cy="213" r="2" style="fill:#000" class="net_39"/>
  <line x1="225" x2="690" y1="572" y2="572" class="net_39"/>
  <line x1="166.42857142857142" x2="225" y1="213" y2="213" class="net_39"/>
  <line x1="225" x2="225" y1="213" y2="197" class="net_39"/>
  <line x1="225" x2="1213" y1="197" y2="197" class="net_39"/>
  <line x1="655" x2="665" y1="526" y2="526" class="net_40"/>
  <line x1="665" x2="665" y1="526" y2="587" class="net_40"/>
  <circle cx="665" cy="526" r="2" style="fill:#000" class="net_40"/>
  <line x1="665" x2="690" y1="587" y2="587" class="net_40"/>
  <line x1="655" x2="665" y1="526" y2="526" class="net_40"/>
  <line x1="665" x2="665" y1="526" y2="212" class="net_40"/>
  <line x1="665" x2="1213" y1="212" y2="212" class="net_40"/>
  <line x1="166.42857142857142" x2="215" y1="233" y2="233" class="net_42"/>
  <line x1="215" x2="215" y1="233" y2="629" class="net_42"/>
  <circle cx="215" cy="233" r="2" style="fill:#000" class="net_42"/>
  <line x1="215" x2="820" y1="629" y2="629" class="net_42"/>
  <line x1="166.42857142857142" x2="215" y1="233" y2="233" class="net_42"/>
  <line x1="215" x2="215" y1="233" y2="232.5" class="net_42"/>
  <line x1="215" x2="1185" y1="232.5" y2="232.5" class="net_42"/>
  <line x1="1185" x2="1185" y1="232.5" y2="257" class="net_42"/>
  <line x1="1185" x2="1213" y1="257" y2="257" class="net_42"/>
  <line x1="785" x2="795" y1="572" y2="572" class="net_43"/>
  <line x1="795" x2="795" y1="572" y2="644" class="net_43"/>
  <circle cx="795" cy="572" r="2" style="fill:#000" class="net_43"/>
  <line x1="795" x2="820" y1="644" y2="644" class="net_43"/>
  <line x1="785" x2="795" y1="572" y2="572" class="net_43"/>
  <line x1="795" x2="795" y1="572" y2="272" class="net_43"/>
  <line x1="795" x2="1213" y1="272" y2="272" class="net_43"/>
  <line x1="166.42857142857142" x2="205" y1="253" y2="253" class="net_45"/>
  <line x1="205" x2="205" y1="253" y2="675" class="net_45"/>
  <line x1="205" x2="950" y1="675" y2="675" class="net_45"/>
  <line x1="166.42857142857142" x2="205" y1="253" y2="253" class="net_45"/>
  <line x1="205" x2="205" y1="253" y2="286" class="net_45"/>
  <line x1="205" x2="1185" y1="286" y2="286" class="net_45"/>
  <line x1="1185" x2="1185" y1="286" y2="317" class="net_45"/>
  <circle cx="205" cy="286" r="2" style="fill:#000" class="net_45"/>
  <line x1="1185" x2="1213" y1="317" y2="317" class="net_45"/>
  <line x1="915" x2="925" y1="629" y2="629" class="net_46"/>
  <line x1="925" x2="925" y1="629" y2="690" class="net_46"/>
  <circle cx="925" cy="629" r="2" style="fill:#000" class="net_46"/>
  <line x1="925" x2="950" y1="690" y2="690" class="net_46"/>
  <line x1="915" x2="925" y1="629" y2="629" class="net_46"/>
  <line x1="925" x2="925" y1="629" y2="332" class="net_46"/>
  <line x1="925" x2="1213" y1="332" y2="332" class="net_46"/>
  <line x1="166.42857142857142" x2="195" y1="273" y2="273" class="net_48"/>
  <line x1="195" x2="195" y1="273" y2="705" class="net_48"/>
  <line x1="195" x2="1080" y1="705" y2="705" class="net_48"/>
  <line x1="166.42857142857142" x2="195" y1="273" y2="273" class="net_48"/>
  <line x1="195" x2="195" y1="273" y2="343" class="net_48"/>
  <line x1="195" x2="1185" y1="343" y2="343" class="net_48"/>
  <line x1="1185" x2="1185" y1="343" y2="576" class="net_48"/>
  <circle cx="195" cy="343" r="2" style="fill:#000" class="net_48"/>
  <line x1="1185" x2="1213" y1="576" y2="576" class="net_48"/>
  <line x1="1045" x2="1055" y1="675" y2="675" class="net_49"/>
  <line x1="1055" x2="1055" y1="675" y2="720" class="net_49"/>
  <circle cx="1055" cy="675" r="2" style="fill:#000" class="net_49"/>
  <line x1="1055" x2="1080" y1="720" y2="720" class="net_49"/>
  <line x1="1045" x2="1055" y1="675" y2="675" class="net_49"/>
  <line x1="1055" x2="1055" y1="675" y2="591" class="net_49"/>
  <line x1="1055" x2="1213" y1="591" y2="591" class="net_49"/>
  <line x1="166.42857142857142" x2="185" y1="293" y2="293" class="net_51"/>
  <line x1="185" x2="185" y1="293" y2="256" class="net_51"/>
  <circle cx="185" cy="256" r="2" style="fill:#000" class="net_51"/>
  <line x1="185" x2="265" y1="256" y2="256" class="net_51"/>
  <line x1="166.42857142857142" x2="185" y1="293" y2="293" class="net_51"/>
  <line x1="185" x2="185" y1="293" y2="17" class="net_51"/>
  <line x1="185" x2="1213" y1="17" y2="17" class="net_51"/>
  <line x1="173" x2="255" y1="32" y2="32" class="net_18"/>
  <line x1="255" x2="255" y1="32" y2="271" class="net_18"/>
  <circle cx="255" cy="32" r="2" style="fill:#000" class="net_18"/>
  <line x1="255" x2="265" y1="271" y2="271" class="net_18"/>
  <line x1="173" x2="1213" y1="32" y2="32" class="net_18"/>
  <line x1="166.42857142857142" x2="430" y1="313" y2="313" class="net_53"/>
  <line x1="166.42857142857142" x2="245" y1="313" y2="313" class="net_53"/>
  <line x1="245" x2="245" y1="313" y2="77" class="net_53"/>
  <circle cx="245" cy="313" r="2" style="fill:#000" class="net_53"/>
  <line x1="245" x2="1213" y1="77" y2="77" class="net_53"/>
  <line x1="395" x2="405" y1="256" y2="256" class="net_54"/>
  <line x1="405" x2="405" y1="256" y2="328" class="net_54"/>
  <circle cx="405" cy="256" r="2" style="fill:#000" class="net_54"/>
  <line x1="405" x2="430" y1="328" y2="328" class="net_54"/>
  <line x1="395" x2="405" y1="256" y2="256" class="net_54"/>
  <line x1="405" x2="405" y1="256" y2="92" class="net_54"/>
  <line x1="405" x2="1213" y1="92" y2="92" class="net_54"/>
  <line x1="285.6666666666667" x2="285.6666666666667" y1="376" y2="354" class="net_30"/>
  <line x1="285.6666666666667" x2="600" y1="354" y2="354" class="net_30"/>
  <line x1="600" x2="600" y1="354" y2="518.5" class="net_30"/>
  <line x1="600" x2="628" y1="518.5" y2="518.5" class="net_30"/>
  <line x1="590" x2="628" y1="533.5" y2="533.5" class="net_38"/>
  <line x1="286.1666666666667" x2="355" y1="396.5" y2="396.5" class="net_31"/>
  <line x1="355" x2="355" y1="396.5" y2="556" class="net_31"/>
  <line x1="355" x2="730" y1="556" y2="556" class="net_31"/>
  <line x1="730" x2="730" y1="556" y2="564.5" class="net_31"/>
  <line x1="730" x2="758" y1="564.5" y2="564.5" class="net_31"/>
  <line x1="720" x2="758" y1="579.5" y2="579.5" class="net_41"/>
  <line x1="286.1666666666667" x2="335" y1="416.5" y2="416.5" class="net_32"/>
  <line x1="335" x2="335" y1="416.5" y2="613" class="net_32"/>
  <line x1="335" x2="860" y1="613" y2="613" class="net_32"/>
  <line x1="860" x2="860" y1="613" y2="621.5" class="net_32"/>
  <line x1="860" x2="888" y1="621.5" y2="621.5" class="net_32"/>
  <line x1="850" x2="888" y1="636.5" y2="636.5" class="net_44"/>
  <line x1="286.1666666666667" x2="305" y1="436.5" y2="436.5" class="net_33"/>
  <line x1="305" x2="305" y1="436.5" y2="659" class="net_33"/>
  <line x1="305" x2="990" y1="659" y2="659" class="net_33"/>
  <line x1="990" x2="990" y1="659" y2="667.5" class="net_33"/>
  <line x1="990" x2="1018" y1="667.5" y2="667.5" class="net_33"/>
  <line x1="980" x2="1018" y1="682.5" y2="682.5" class="net_47"/>
  <line x1="286.1666666666667" x2="315" y1="456.5" y2="456.5" class="net_34"/>
  <line x1="315" x2="315" y1="456.5" y2="602" class="net_34"/>
  <line x1="315" x2="1120" y1="602" y2="602" class="net_34"/>
  <line x1="1120" x2="1120" y1="602" y2="697.5" class="net_34"/>
  <line x1="1120" x2="1148" y1="697.5" y2="697.5" class="net_34"/>
  <line x1="1110" x2="1148" y1="712.5" y2="712.5" class="net_50"/>
  <line x1="286.1666666666667" x2="325" y1="476.5" y2="476.5" class="net_28"/>
  <line x1="325" x2="325" y1="476.5" y2="248.5" class="net_28"/>
  <line x1="325" x2="368" y1="248.5" y2="248.5" class="net_28"/>
  <line x1="295" x2="368" y1="263.5" y2="263.5" class="net_52"/>
  <line x1="285.6666666666667" x2="285.6666666666667" y1="497" y2="516" class="net_29"/>
  <line x1="285.6666666666667" x2="345" y1="516" y2="516" class="net_29"/>
  <line x1="345" x2="345" y1="516" y2="297" class="net_29"/>
  <line x1="345" x2="470" y1="297" y2="297" class="net_29"/>
  <line x1="470" x2="470" y1="297" y2="305.5" class="net_29"/>
  <line x1="470" x2="498" y1="305.5" y2="305.5" class="net_29"/>
  <line x1="460" x2="498" y1="320.5" y2="320.5" class="net_55"/>
  <line x1="165.92857142857142" x2="165.92857142857142" y1="333.5" y2="364" class="net_56"/>
  <line x1="165.92857142857142" x2="185" y1="364" y2="364" class="net_56"/>
  <line x1="185" x2="185" y1="364" y2="735" class="net_56"/>
  <line x1="185" x2="1213" y1="735" y2="735" class="net_56"/>
  <line x1="1175" x2="1185" y1="705" y2="705" class="net_27"/>
  <line x1="1185" x2="1185" y1="705" y2="750" class="net_27"/>
  <circle cx="1185" cy="705" r="2" style="fill:#000" class="net_27"/>
  <line x1="1185" x2="1213" y1="750" y2="750" class="net_27"/>
  <line x1="1175" x2="1346" y1="705" y2="705" class="net_27"/>
  <line x1="1309" x2="1346" y1="473.5" y2="473.5" class="net_19,20,21,22,23,24,25,26"/>
  <line x1="1243" x2="1303.5" y1="24.5" y2="24.5" class="net_19"/>
  <line x1="1303.5" x2="1303.5" y1="24.5" y2="463" class="net_19"/>
  <line x1="1243" x2="1293" y1="84.5" y2="84.5" class="net_20"/>
  <line x1="1293" x2="1293" y1="84.5" y2="483.5" class="net_20"/>
  <line x1="1293" x2="1303" y1="483.5" y2="483.5" class="net_20"/>
  <line x1="1243" x2="1283" y1="144.5" y2="144.5" class="net_21"/>
  <line x1="1283" x2="1283" y1="144.5" y2="503.5" class="net_21"/>
  <line x1="1283" x2="1303" y1="503.5" y2="503.5" class="net_21"/>
  <line x1="1243" x2="1273" y1="204.5" y2="204.5" class="net_22"/>
  <line x1="1273" x2="1273" y1="204.5" y2="523.5" class="net_22"/>
  <line x1="1273" x2="1303" y1="523.5" y2="523.5" class="net_22"/>
  <line x1="1243" x2="1263" y1="264.5" y2="264.5" class="net_23"/>
  <line x1="1263" x2="1263" y1="264.5" y2="543.5" class="net_23"/>
  <line x1="1263" x2="1303" y1="543.5" y2="543.5" class="net_23"/>
  <line x1="1243" x2="1253" y1="324.5" y2="324.5" class="net_24"/>
  <line x1="1253" x2="1253" y1="324.5" y2="563.5" class="net_24"/>
  <line x1="1253" x2="1303" y1="563.5" y2="563.5" class="net_24"/>
  <line x1="1243" x2="1303" y1="583.5" y2="583.5" class="net_25"/>
  <line x1="1243" x2="1303.5" y1="742.5" y2="742.5" class="net_26"/>
  <line x1="1303.5" x2="1303.5" y1="742.5" y2="604" class="net_26"/>
  <line x1="110" x2="161.42857142857142" y1="203" y2="203" class="net_51,53,36,39,42,45,48,56"/>
  <line x1="175" x2="281.1666666666667" y1="386.5" y2="386.5" class="net_28,29,30,31,32,33,34,35"/>
</svg>
