<svg xmlns="http://www.w3.org/2000/svg" xmlns:xlink="http://www.w3.org/1999/xlink" xmlns:s="https://github.com/nturley/netlistsvg" width="974" height="494.5">
  <style>svg {
    stroke:#000;
    fill:none;
  }
  text {
    fill:#000;
    stroke:none;
    font-size:10px;
    font-weight: bold;
    font-family: "Courier New", monospace;
  }
  .nodelabel {
    text-anchor: middle;
  }
  .inputPortLabel {
    text-anchor: end;
  }
  .splitjoinBody {
    fill:#000;
  }</style>
  <g s:type="and" transform="translate(197,204.5)" s:width="30" s:height="25" id="cell_$and$people_counter.sv:14$3">
    <s:alias val="$and"/>
    <s:alias val="$logic_and"/>
    <s:alias val="$_AND_"/>
    <path d="M0,0 L0,25 L15,25 A15 12.5 0 0 0 15,0 Z" class="cell_$and$people_counter.sv:14$3"/>
    <g s:x="0" s:y="5" s:pid="A"/>
    <g s:x="0" s:y="20" s:pid="B"/>
    <g s:x="30" s:y="12.5" s:pid="Y"/>
  </g>
  <g s:type="and" transform="translate(262,212)" s:width="30" s:height="25" id="cell_$and$people_counter.sv:14$4">
    <s:alias val="$and"/>
    <s:alias val="$logic_and"/>
    <s:alias val="$_AND_"/>
    <path d="M0,0 L0,25 L15,25 A15 12.5 0 0 0 15,0 Z" class="cell_$and$people_counter.sv:14$4"/>
    <g s:x="0" s:y="5" s:pid="A"/>
    <g s:x="0" s:y="20" s:pid="B"/>
    <g s:x="30" s:y="12.5" s:pid="Y"/>
  </g>
  <g s:type="and" transform="translate(327,219.5)" s:width="30" s:height="25" id="cell_$and$people_counter.sv:14$5">
    <s:alias val="$and"/>
    <s:alias val="$logic_and"/>
    <s:alias val="$_AND_"/>
    <path d="M0,0 L0,25 L15,25 A15 12.5 0 0 0 15,0 Z" class="cell_$and$people_counter.sv:14$5"/>
    <g s:x="0" s:y="5" s:pid="A"/>
    <g s:x="0" s:y="20" s:pid="B"/>
    <g s:x="30" s:y="12.5" s:pid="Y"/>
  </g>
  <g s:type="and" transform="translate(392,227)" s:width="30" s:height="25" id="cell_$and$people_counter.sv:14$6">
    <s:alias val="$and"/>
    <s:alias val="$logic_and"/>
    <s:alias val="$_AND_"/>
    <path d="M0,0 L0,25 L15,25 A15 12.5 0 0 0 15,0 Z" class="cell_$and$people_counter.sv:14$6"/>
    <g s:x="0" s:y="5" s:pid="A"/>
    <g s:x="0" s:y="20" s:pid="B"/>
    <g s:x="30" s:y="12.5" s:pid="Y"/>
  </g>
  <g s:type="and" transform="translate(540,179.5)" s:width="30" s:height="25" id="cell_$and$people_counter.sv:14$8">
    <s:alias val="$and"/>
    <s:alias val="$logic_and"/>
    <s:alias val="$_AND_"/>
    <path d="M0,0 L0,25 L15,25 A15 12.5 0 0 0 15,0 Z" class="cell_$and$people_counter.sv:14$8"/>
    <g s:x="0" s:y="5" s:pid="A"/>
    <g s:x="0" s:y="20" s:pid="B"/>
    <g s:x="30" s:y="12.5" s:pid="Y"/>
  </g>
  <g s:type="and" transform="translate(741.3333333333334,397)" s:width="30" s:height="25" id="cell_$and$people_counter.sv:16$14">
    <s:alias val="$and"/>
    <s:alias val="$logic_and"/>
    <s:alias val="$_AND_"/>
    <path d="M0,0 L0,25 L15,25 A15 12.5 0 0 0 15,0 Z" class="cell_$and$people_counter.sv:16$14"/>
    <g s:x="0" s:y="5" s:pid="A"/>
    <g s:x="0" s:y="20" s:pid="B"/>
    <g s:x="30" s:y="12.5" s:pid="Y"/>
  </g>
  <g s:type="not" transform="translate(466,229.5)" s:width="30" s:height="20" id="cell_$logic_not$people_counter.sv:14$7">
    <s:alias val="$_NOT_"/>
    <s:alias val="$not"/>
    <s:alias val="$logic_not"/>
    <path d="M0,0 L0,20 L20,10 Z" class="cell_$logic_not$people_counter.sv:14$7"/>
    <circle cx="23" cy="10" r="3" class="cell_$logic_not$people_counter.sv:14$7"/>
    <g s:x="0" s:y="10" s:pid="A"/>
    <g s:x="25" s:y="10" s:pid="Y"/>
  </g>
  <g s:type="not" transform="translate(637.5,327)" s:width="30" s:height="20" id="cell_$logic_not$people_counter.sv:35$1">
    <s:alias val="$_NOT_"/>
    <s:alias val="$not"/>
    <s:alias val="$logic_not"/>
    <path d="M0,0 L0,20 L20,10 Z" class="cell_$logic_not$people_counter.sv:35$1"/>
    <circle cx="23" cy="10" r="3" class="cell_$logic_not$people_counter.sv:35$1"/>
    <g s:x="0" s:y="10" s:pid="A"/>
    <g s:x="25" s:y="10" s:pid="Y"/>
  </g>
  <g s:type="or" transform="translate(392,424.5)" s:width="30" s:height="25" id="cell_$or$people_counter.sv:16$10">
    <s:alias val="$or"/>
    <s:alias val="$logic_or"/>
    <s:alias val="$_OR_"/>
    <path d="M0,25 L0,25 L15,25 A15 12.5 0 0 0 15,0 L0,0" class="cell_$or$people_counter.sv:16$10"/>
    <path d="M0,0 A30 25 0 0 1 0,25" class="cell_$or$people_counter.sv:16$10"/>
    <g s:x="3" s:y="5" s:pid="A"/>
    <g s:x="3" s:y="20" s:pid="B"/>
    <g s:x="30" s:y="12.5" s:pid="Y"/>
  </g>
  <g s:type="or" transform="translate(463,432)" s:width="30" s:height="25" id="cell_$or$people_counter.sv:16$11">
    <s:alias val="$or"/>
    <s:alias val="$logic_or"/>
    <s:alias val="$_OR_"/>
    <path d="M0,25 L0,25 L15,25 A15 12.5 0 0 0 15,0 L0,0" class="cell_$or$people_counter.sv:16$11"/>
    <path d="M0,0 A30 25 0 0 1 0,25" class="cell_$or$people_counter.sv:16$11"/>
    <g s:x="3" s:y="5" s:pid="A"/>
    <g s:x="3" s:y="20" s:pid="B"/>
    <g s:x="30" s:y="12.5" s:pid="Y"/>
  </g>
  <g s:type="or" transform="translate(540,439.5)" s:width="30" s:height="25" id="cell_$or$people_counter.sv:16$12">
    <s:alias val="$or"/>
    <s:alias val="$logic_or"/>
    <s:alias val="$_OR_"/>
    <path d="M0,25 L0,25 L15,25 A15 12.5 0 0 0 15,0 L0,0" class="cell_$or$people_counter.sv:16$12"/>
    <path d="M0,0 A30 25 0 0 1 0,25" class="cell_$or$people_counter.sv:16$12"/>
    <g s:x="3" s:y="5" s:pid="A"/>
    <g s:x="3" s:y="20" s:pid="B"/>
    <g s:x="30" s:y="12.5" s:pid="Y"/>
  </g>
  <g s:type="or" transform="translate(634.6666666666666,447)" s:width="30" s:height="25" id="cell_$or$people_counter.sv:16$13">
    <s:alias val="$or"/>
    <s:alias val="$logic_or"/>
    <s:alias val="$_OR_"/>
    <path d="M0,25 L0,25 L15,25 A15 12.5 0 0 0 15,0 L0,0" class="cell_$or$people_counter.sv:16$13"/>
    <path d="M0,0 A30 25 0 0 1 0,25" class="cell_$or$people_counter.sv:16$13"/>
    <g s:x="3" s:y="5" s:pid="A"/>
    <g s:x="3" s:y="20" s:pid="B"/>
    <g s:x="30" s:y="12.5" s:pid="Y"/>
  </g>
  <g s:type="generic" transform="translate(633.25,53)" s:width="30" s:height="40" id="cell_adding">
    <text x="15" y="-4" class="nodelabel cell_adding" s:attribute="ref">full_adder w5</text>
    <rect width="30" height="60" s:generic="body" class="cell_adding"/>
    <g transform="translate(0,10)" s:x="0" s:y="10" s:pid="in0" id="port_adding~a">
      <text x="-3" y="-4" class="inputPortLabel cell_adding">a</text>
    </g>
    <g transform="translate(0,30)" s:x="0" s:y="10" s:pid="in0" id="port_adding~b">
      <text x="-3" y="-4" class="inputPortLabel cell_adding">b</text>
    </g>
    <g transform="translate(0,50)" s:x="0" s:y="10" s:pid="in0" id="port_adding~cin">
      <text x="-3" y="-4" class="inputPortLabel cell_adding">cin</text>
    </g>
    <g transform="translate(30,10)" s:x="30" s:y="10" s:pid="out0" id="port_adding~s">
      <text x="5" y="-4" style="fill:#000; stroke:none" class="cell_adding">s</text>
    </g>
  </g>
  <g s:type="generic" transform="translate(743,33)" s:width="30" s:height="40" id="cell_m0">
    <text x="15" y="-4" class="nodelabel cell_m0" s:attribute="ref">mux2 w5</text>
    <rect width="30" height="60" s:generic="body" class="cell_m0"/>
    <g transform="translate(0,10)" s:x="0" s:y="10" s:pid="in0" id="port_m0~d0">
      <text x="-3" y="-4" class="inputPortLabel cell_m0">d0</text>
    </g>
    <g transform="translate(0,30)" s:x="0" s:y="10" s:pid="in0" id="port_m0~d1">
      <text x="-3" y="-4" class="inputPortLabel cell_m0">d1</text>
    </g>
    <g transform="translate(0,50)" s:x="0" s:y="10" s:pid="in0" id="port_m0~s">
      <text x="-3" y="-4" class="inputPortLabel cell_m0">s</text>
    </g>
    <g transform="translate(30,10)" s:x="30" s:y="10" s:pid="out0" id="port_m0~y">
      <text x="5" y="-4" style="fill:#000; stroke:none" class="cell_m0">y</text>
    </g>
  </g>
  <g s:type="generic" transform="translate(743,209)" s:width="30" s:height="40" id="cell_m1">
    <text x="15" y="-4" class="nodelabel cell_m1" s:attribute="ref">mux2 w5</text>
    <rect width="30" height="60" s:generic="body" class="cell_m1"/>
    <g transform="translate(0,10)" s:x="0" s:y="10" s:pid="in0" id="port_m1~d0">
      <text x="-3" y="-4" class="inputPortLabel cell_m1">d0</text>
    </g>
    <g transform="translate(0,30)" s:x="0" s:y="10" s:pid="in0" id="port_m1~d1">
      <text x="-3" y="-4" class="inputPortLabel cell_m1">d1</text>
    </g>
    <g transform="translate(0,50)" s:x="0" s:y="10" s:pid="in0" id="port_m1~s">
      <text x="-3" y="-4" class="inputPortLabel cell_m1">s</text>
    </g>
    <g transform="translate(30,10)" s:x="30" s:y="10" s:pid="out0" id="port_m1~y">
      <text x="5" y="-4" style="fill:#000; stroke:none" class="cell_m1">y</text>
    </g>
  </g>
  <g s:type="generic" transform="translate(829,189)" s:width="30" s:height="40" id="cell_m2">
    <text x="15" y="-4" class="nodelabel cell_m2" s:attribute="ref">mux2 w5</text>
    <rect width="30" height="60" s:generic="body" class="cell_m2"/>
    <g transform="translate(0,10)" s:x="0" s:y="10" s:pid="in0" id="port_m2~d0">
      <text x="-3" y="-4" class="inputPortLabel cell_m2">d0</text>
    </g>
    <g transform="translate(0,30)" s:x="0" s:y="10" s:pid="in0" id="port_m2~d1">
      <text x="-3" y="-4" class="inputPortLabel cell_m2">d1</text>
    </g>
    <g transform="translate(0,50)" s:x="0" s:y="10" s:pid="in0" id="port_m2~s">
      <text x="-3" y="-4" class="inputPortLabel cell_m2">s</text>
    </g>
    <g transform="translate(30,10)" s:x="30" s:y="10" s:pid="out0" id="port_m2~y">
      <text x="5" y="-4" style="fill:#000; stroke:none" class="cell_m2">y</text>
    </g>
  </g>
  <g s:type="generic" transform="translate(629,229)" s:width="30" s:height="40" id="cell_subtracting">
    <text x="15" y="-4" class="nodelabel cell_subtracting" s:attribute="ref">full_adder w5</text>
    <rect width="30" height="60" s:generic="body" class="cell_subtracting"/>
    <g transform="translate(0,10)" s:x="0" s:y="10" s:pid="in0" id="port_subtracting~a">
      <text x="-3" y="-4" class="inputPortLabel cell_subtracting">a</text>
    </g>
    <g transform="translate(0,30)" s:x="0" s:y="10" s:pid="in0" id="port_subtracting~b">
      <text x="-3" y="-4" class="inputPortLabel cell_subtracting">b</text>
    </g>
    <g transform="translate(0,50)" s:x="0" s:y="10" s:pid="in0" id="port_subtracting~cin">
      <text x="-3" y="-4" class="inputPortLabel cell_subtracting">cin</text>
    </g>
    <g transform="translate(30,10)" s:x="30" s:y="10" s:pid="out0" id="port_subtracting~s">
      <text x="5" y="-4" style="fill:#000; stroke:none" class="cell_subtracting">s</text>
    </g>
  </g>
  <g s:type="inputExt" transform="translate(12,22)" s:width="30" s:height="20" id="cell_current_count">
    <text x="15" y="-4" class="nodelabel cell_current_count" s:attribute="ref">current_count</text>
    <s:alias val="$_inputExt_"/>
    <path d="M0,0 L0,20 L15,20 L30,10 L15,0 Z" class="cell_current_count"/>
    <g s:x="28" s:y="10" s:pid="Y"/>
  </g>
  <g s:type="inputExt" transform="translate(457,174.5)" s:width="30" s:height="20" id="cell_switch_A">
    <text x="15" y="-4" class="nodelabel cell_switch_A" s:attribute="ref">switch_A</text>
    <s:alias val="$_inputExt_"/>
    <path d="M0,0 L0,20 L15,20 L30,10 L15,0 Z" class="cell_switch_A"/>
    <g s:x="28" s:y="10" s:pid="Y"/>
  </g>
  <g s:type="inputExt" transform="translate(629,392)" s:width="30" s:height="20" id="cell_switch_B">
    <text x="15" y="-4" class="nodelabel cell_switch_B" s:attribute="ref">switch_B</text>
    <s:alias val="$_inputExt_"/>
    <path d="M0,0 L0,20 L15,20 L30,10 L15,0 Z" class="cell_switch_B"/>
    <g s:x="28" s:y="10" s:pid="Y"/>
  </g>
  <g s:type="outputExt" transform="translate(902,189.5)" s:width="30" s:height="20" id="cell_next_count">
    <text x="15" y="-4" class="nodelabel cell_next_count" s:attribute="ref">next_count</text>
    <s:alias val="$_outputExt_"/>
    <path d="M30,0 L30,20 L15,20 L0,10 L15,0 Z" class="cell_next_count"/>
    <g s:x="0" s:y="10" s:pid="A"/>
  </g>
  <g s:type="constant" transform="translate(540,73.5)" s:width="30" s:height="20" id="cell_00001">
    <text x="15" y="-4" class="nodelabel cell_00001" s:attribute="ref">0x1</text>
    <s:alias val="$_constant_"/>
    <rect width="30" height="20" class="cell_00001"/>
    <g s:x="30" s:y="10" s:pid="Y"/>
  </g>
  <g s:type="constant" transform="translate(540,138.5)" s:width="30" s:height="20" id="cell_0">
    <text x="15" y="-4" class="nodelabel cell_0" s:attribute="ref">0</text>
    <s:alias val="$_constant_"/>
    <rect width="30" height="20" class="cell_0"/>
    <g s:x="30" s:y="10" s:pid="Y"/>
  </g>
  <g s:type="constant" transform="translate(540,249.5)" s:width="30" s:height="20" id="cell_11110">
    <text x="15" y="-4" class="nodelabel cell_11110" s:attribute="ref">0x1e</text>
    <s:alias val="$_constant_"/>
    <rect width="30" height="20" class="cell_11110"/>
    <g s:x="30" s:y="10" s:pid="Y"/>
  </g>
  <g s:type="constant" transform="translate(540,314.5)" s:width="30" s:height="20" id="cell_1">
    <text x="15" y="-4" class="nodelabel cell_1" s:attribute="ref">1</text>
    <s:alias val="$_constant_"/>
    <rect width="30" height="20" class="cell_1"/>
    <g s:x="30" s:y="10" s:pid="Y"/>
  </g>
  <g s:type="split" transform="translate(125,199)" s:width="5" s:height="40" id="cell_$split$,2,3,4,5,6,">
    <rect width="5" height="100" class="splitjoinBody" s:generic="body"/>
    <s:alias val="$_split_"/>
    <g s:x="0" s:y="20" s:pid="in"/>
    <g transform="translate(4,10)" s:x="4" s:y="10" s:pid="out0">
      <text x="5" y="-4">4</text>
    </g>
    <g transform="translate(4,30)" s:x="4" s:y="10" s:pid="out0">
      <text x="5" y="-4">3</text>
    </g>
    <g transform="translate(4,50)" s:x="4" s:y="10" s:pid="out0">
      <text x="5" y="-4">2</text>
    </g>
    <g transform="translate(4,70)" s:x="4" s:y="10" s:pid="out0">
      <text x="5" y="-4">1</text>
    </g>
    <g transform="translate(4,90)" s:x="4" s:y="10" s:pid="out0">
      <text x="5" y="-4">0</text>
    </g>
  </g>
  <line x1="130" x2="197" y1="209.5" y2="209.5" class="net_6"/>
  <line x1="130" x2="187" y1="209.5" y2="209.5" class="net_6"/>
  <line x1="187" x2="187" y1="209.5" y2="429.5" class="net_6"/>
  <circle cx="187" cy="209.5" r="2" style="fill:#000" class="net_6"/>
  <line x1="187" x2="395" y1="429.5" y2="429.5" class="net_6"/>
  <line x1="130" x2="177" y1="229.5" y2="229.5" class="net_5"/>
  <line x1="177" x2="177" y1="229.5" y2="224.5" class="net_5"/>
  <circle cx="177" cy="229.5" r="2" style="fill:#000" class="net_5"/>
  <line x1="177" x2="197" y1="224.5" y2="224.5" class="net_5"/>
  <line x1="130" x2="177" y1="229.5" y2="229.5" class="net_5"/>
  <line x1="177" x2="177" y1="229.5" y2="440.5" class="net_5"/>
  <line x1="177" x2="367" y1="440.5" y2="440.5" class="net_5"/>
  <line x1="367" x2="367" y1="440.5" y2="444.5" class="net_5"/>
  <line x1="367" x2="395" y1="444.5" y2="444.5" class="net_5"/>
  <line x1="227" x2="262" y1="217" y2="217" class="net_14"/>
  <line x1="130" x2="237" y1="249.5" y2="249.5" class="net_4"/>
  <line x1="237" x2="237" y1="249.5" y2="232" class="net_4"/>
  <line x1="237" x2="262" y1="232" y2="232" class="net_4"/>
  <line x1="130" x2="167" y1="249.5" y2="249.5" class="net_4"/>
  <line x1="167" x2="167" y1="249.5" y2="459.5" class="net_4"/>
  <line x1="167" x2="432" y1="459.5" y2="459.5" class="net_4"/>
  <line x1="432" x2="432" y1="459.5" y2="452" class="net_4"/>
  <circle cx="167" cy="249.5" r="2" style="fill:#000" class="net_4"/>
  <line x1="432" x2="466" y1="452" y2="452" class="net_4"/>
  <line x1="292" x2="327" y1="224.5" y2="224.5" class="net_15"/>
  <line x1="130" x2="302" y1="269.5" y2="269.5" class="net_3"/>
  <line x1="302" x2="302" y1="269.5" y2="239.5" class="net_3"/>
  <line x1="302" x2="327" y1="239.5" y2="239.5" class="net_3"/>
  <line x1="130" x2="157" y1="269.5" y2="269.5" class="net_3"/>
  <line x1="157" x2="157" y1="269.5" y2="470.5" class="net_3"/>
  <line x1="157" x2="515" y1="470.5" y2="470.5" class="net_3"/>
  <line x1="515" x2="515" y1="470.5" y2="459.5" class="net_3"/>
  <circle cx="157" cy="269.5" r="2" style="fill:#000" class="net_3"/>
  <line x1="515" x2="543" y1="459.5" y2="459.5" class="net_3"/>
  <line x1="357" x2="392" y1="232" y2="232" class="net_16"/>
  <line x1="129.5" x2="129.5" y1="290" y2="309" class="net_2"/>
  <line x1="129.5" x2="367" y1="309" y2="309" class="net_2"/>
  <line x1="367" x2="367" y1="309" y2="247" class="net_2"/>
  <line x1="367" x2="392" y1="247" y2="247" class="net_2"/>
  <line x1="129.5" x2="129.5" y1="290" y2="309" class="net_2"/>
  <line x1="129.5" x2="147" y1="309" y2="309" class="net_2"/>
  <line x1="147" x2="147" y1="309" y2="481.5" class="net_2"/>
  <line x1="147" x2="580" y1="481.5" y2="481.5" class="net_2"/>
  <line x1="580" x2="580" y1="481.5" y2="467" class="net_2"/>
  <circle cx="147" cy="309" r="2" style="fill:#000" class="net_2"/>
  <line x1="580" x2="637.6666666666666" y1="467" y2="467" class="net_2"/>
  <line x1="485" x2="540" y1="184.5" y2="184.5" class="net_7"/>
  <line x1="491" x2="515" y1="239.5" y2="239.5" class="net_18"/>
  <line x1="515" x2="515" y1="239.5" y2="199.5" class="net_18"/>
  <line x1="515" x2="540" y1="199.5" y2="199.5" class="net_18"/>
  <line x1="657" x2="741.3333333333334" y1="402" y2="402" class="net_8"/>
  <line x1="664.6666666666666" x2="705" y1="459.5" y2="459.5" class="net_20"/>
  <line x1="705" x2="705" y1="459.5" y2="417" class="net_20"/>
  <line x1="705" x2="741.3333333333334" y1="417" y2="417" class="net_20"/>
  <line x1="422" x2="466" y1="239.5" y2="239.5" class="net_17"/>
  <line x1="570" x2="590" y1="192" y2="192" class="net_19"/>
  <line x1="590" x2="590" y1="192" y2="337" class="net_19"/>
  <circle cx="590" cy="192" r="2" style="fill:#000" class="net_19"/>
  <line x1="590" x2="637.5" y1="337" y2="337" class="net_19"/>
  <line x1="570" x2="590" y1="192" y2="192" class="net_19"/>
  <line x1="590" x2="590" y1="192" y2="126" class="net_19"/>
  <line x1="590" x2="705" y1="126" y2="126" class="net_19"/>
  <line x1="705" x2="705" y1="126" y2="83.5" class="net_19"/>
  <line x1="705" x2="743" y1="83.5" y2="83.5" class="net_19"/>
  <line x1="422" x2="466" y1="437" y2="437" class="net_23"/>
  <line x1="493" x2="543" y1="444.5" y2="444.5" class="net_24"/>
  <line x1="570" x2="637.6666666666666" y1="452" y2="452" class="net_25"/>
  <line x1="40" x2="580" y1="32" y2="32" class="net_2,3,4,5,6"/>
  <line x1="580" x2="580" y1="32" y2="63.5" class="net_2,3,4,5,6"/>
  <circle cx="580" cy="32" r="2" style="fill:#000" class="net_2,3,4,5,6"/>
  <line x1="580" x2="633.25" y1="63.5" y2="63.5" class="net_2,3,4,5,6"/>
  <line x1="40" x2="705" y1="32" y2="32" class="net_2,3,4,5,6"/>
  <line x1="705" x2="705" y1="32" y2="43.5" class="net_2,3,4,5,6"/>
  <line x1="705" x2="743" y1="43.5" y2="43.5" class="net_2,3,4,5,6"/>
  <line x1="40" x2="515" y1="32" y2="32" class="net_2,3,4,5,6"/>
  <line x1="515" x2="515" y1="32" y2="168.5" class="net_2,3,4,5,6"/>
  <line x1="515" x2="705" y1="168.5" y2="168.5" class="net_2,3,4,5,6"/>
  <line x1="705" x2="705" y1="168.5" y2="219.5" class="net_2,3,4,5,6"/>
  <circle cx="515" cy="32" r="2" style="fill:#000" class="net_2,3,4,5,6"/>
  <line x1="705" x2="743" y1="219.5" y2="219.5" class="net_2,3,4,5,6"/>
  <line x1="40" x2="515" y1="32" y2="32" class="net_2,3,4,5,6"/>
  <line x1="515" x2="515" y1="32" y2="168.5" class="net_2,3,4,5,6"/>
  <line x1="515" x2="600" y1="168.5" y2="168.5" class="net_2,3,4,5,6"/>
  <line x1="600" x2="600" y1="168.5" y2="239.5" class="net_2,3,4,5,6"/>
  <circle cx="600" cy="168.5" r="2" style="fill:#000" class="net_2,3,4,5,6"/>
  <line x1="600" x2="629" y1="239.5" y2="239.5" class="net_2,3,4,5,6"/>
  <line x1="40" x2="100" y1="32" y2="32" class="net_2,3,4,5,6"/>
  <line x1="100" x2="100" y1="32" y2="219.5" class="net_2,3,4,5,6"/>
  <circle cx="100" cy="32" r="2" style="fill:#000" class="net_2,3,4,5,6"/>
  <line x1="100" x2="125" y1="219.5" y2="219.5" class="net_2,3,4,5,6"/>
  <line x1="570" x2="633.25" y1="83.5" y2="83.5" class="net_46,47,48,49,50"/>
  <line x1="570" x2="580" y1="148.5" y2="148.5" class="net_51"/>
  <line x1="580" x2="580" y1="148.5" y2="103.5" class="net_51"/>
  <line x1="580" x2="633.25" y1="103.5" y2="103.5" class="net_51"/>
  <line x1="664.25" x2="743" y1="63.5" y2="63.5" class="net_26,27,28,29,30"/>
  <line x1="660" x2="743" y1="239.5" y2="239.5" class="net_36,37,38,39,40"/>
  <line x1="662.5" x2="705" y1="337" y2="337" class="net_22"/>
  <line x1="705" x2="705" y1="337" y2="259.5" class="net_22"/>
  <line x1="705" x2="743" y1="259.5" y2="259.5" class="net_22"/>
  <line x1="774" x2="791" y1="43.5" y2="43.5" class="net_31,32,33,34,35"/>
  <line x1="791" x2="791" y1="43.5" y2="199.5" class="net_31,32,33,34,35"/>
  <line x1="791" x2="829" y1="199.5" y2="199.5" class="net_31,32,33,34,35"/>
  <line x1="774" x2="829" y1="219.5" y2="219.5" class="net_41,42,43,44,45"/>
  <line x1="771.3333333333334" x2="791" y1="409.5" y2="409.5" class="net_21"/>
  <line x1="791" x2="791" y1="409.5" y2="239.5" class="net_21"/>
  <line x1="791" x2="829" y1="239.5" y2="239.5" class="net_21"/>
  <line x1="570" x2="629" y1="259.5" y2="259.5" class="net_52,53,54,55,56"/>
  <line x1="570" x2="600" y1="324.5" y2="324.5" class="net_57"/>
  <line x1="600" x2="600" y1="324.5" y2="279.5" class="net_57"/>
  <line x1="600" x2="629" y1="279.5" y2="279.5" class="net_57"/>
  <line x1="860" x2="902" y1="199.5" y2="199.5" class="net_9,10,11,12,13"/>
</svg>
