<svg xmlns="http://www.w3.org/2000/svg" xmlns:xlink="http://www.w3.org/1999/xlink" xmlns:s="https://github.com/nturley/netlistsvg" width="796" height="670.5">
  <style>svg {
    stroke:#000;
    fill:none;
  }
  text {
    fill:#000;
    stroke:none;
    font-size:10px;
    font-weight: bold;
    font-family: "Courier New", monospace;
  }
  .nodelabel {
    text-anchor: middle;
  }
  .inputPortLabel {
    text-anchor: end;
  }
  .splitjoinBody {
    fill:#000;
  }</style>
  <g s:type="and" transform="translate(388,12)" s:width="30" s:height="25" id="cell_$and$smart_room.sv:65$4">
    <s:alias val="$and"/>
    <s:alias val="$logic_and"/>
    <s:alias val="$_AND_"/>
    <path d="M0,0 L0,25 L15,25 A15 12.5 0 0 0 15,0 Z" class="cell_$and$smart_room.sv:65$4"/>
    <g s:x="0" s:y="5" s:pid="A"/>
    <g s:x="0" s:y="20" s:pid="B"/>
    <g s:x="30" s:y="12.5" s:pid="Y"/>
  </g>
  <g s:type="and" transform="translate(286.6666666666667,70.5)" s:width="30" s:height="25" id="cell_$and$smart_room.sv:66$5">
    <s:alias val="$and"/>
    <s:alias val="$logic_and"/>
    <s:alias val="$_AND_"/>
    <path d="M0,0 L0,25 L15,25 A15 12.5 0 0 0 15,0 Z" class="cell_$and$smart_room.sv:66$5"/>
    <g s:x="0" s:y="5" s:pid="A"/>
    <g s:x="0" s:y="20" s:pid="B"/>
    <g s:x="30" s:y="12.5" s:pid="Y"/>
  </g>
  <g s:type="and" transform="translate(388,78)" s:width="30" s:height="25" id="cell_$and$smart_room.sv:66$6">
    <s:alias val="$and"/>
    <s:alias val="$logic_and"/>
    <s:alias val="$_AND_"/>
    <path d="M0,0 L0,25 L15,25 A15 12.5 0 0 0 15,0 Z" class="cell_$and$smart_room.sv:66$6"/>
    <g s:x="0" s:y="5" s:pid="A"/>
    <g s:x="0" s:y="20" s:pid="B"/>
    <g s:x="30" s:y="12.5" s:pid="Y"/>
  </g>
  <g s:type="or" transform="translate(486.3333333333333,19.5)" s:width="30" s:height="25" id="cell_$or$smart_room.sv:67$7">
    <s:alias val="$or"/>
    <s:alias val="$logic_or"/>
    <s:alias val="$_OR_"/>
    <path d="M0,25 L0,25 L15,25 A15 12.5 0 0 0 15,0 L0,0" class="cell_$or$smart_room.sv:67$7"/>
    <path d="M0,0 A30 25 0 0 1 0,25" class="cell_$or$smart_room.sv:67$7"/>
    <g s:x="3" s:y="5" s:pid="A"/>
    <g s:x="3" s:y="20" s:pid="B"/>
    <g s:x="30" s:y="12.5" s:pid="Y"/>
  </g>
  <g s:type="generic" transform="translate(281,205.5)" s:width="30" s:height="40" id="cell_$procdff$127">
    <text x="15" y="-4" class="nodelabel cell_$procdff$127" s:attribute="ref">$adff</text>
    <rect width="30" height="60" s:generic="body" class="cell_$procdff$127"/>
    <g transform="translate(0,10)" s:x="0" s:y="10" s:pid="in0" id="port_$procdff$127~ARST">
      <text x="-3" y="-4" class="inputPortLabel cell_$procdff$127">ARST</text>
    </g>
    <g transform="translate(0,30)" s:x="0" s:y="10" s:pid="in0" id="port_$procdff$127~CLK">
      <text x="-3" y="-4" class="inputPortLabel cell_$procdff$127">CLK</text>
    </g>
    <g transform="translate(0,50)" s:x="0" s:y="10" s:pid="in0" id="port_$procdff$127~D">
      <text x="-3" y="-4" class="inputPortLabel cell_$procdff$127">D</text>
    </g>
    <g transform="translate(30,10)" s:x="30" s:y="10" s:pid="out0" id="port_$procdff$127~Q">
      <text x="5" y="-4" style="fill:#000; stroke:none" class="cell_$procdff$127">Q</text>
    </g>
  </g>
  <g s:type="generic" transform="translate(486,426)" s:width="30" s:height="40" id="cell_$procdff$130">
    <text x="15" y="-4" class="nodelabel cell_$procdff$130" s:attribute="ref">$adff</text>
    <rect width="30" height="60" s:generic="body" class="cell_$procdff$130"/>
    <g transform="translate(0,10)" s:x="0" s:y="10" s:pid="in0" id="port_$procdff$130~ARST">
      <text x="-3" y="-4" class="inputPortLabel cell_$procdff$130">ARST</text>
    </g>
    <g transform="translate(0,30)" s:x="0" s:y="10" s:pid="in0" id="port_$procdff$130~CLK">
      <text x="-3" y="-4" class="inputPortLabel cell_$procdff$130">CLK</text>
    </g>
    <g transform="translate(0,50)" s:x="0" s:y="10" s:pid="in0" id="port_$procdff$130~D">
      <text x="-3" y="-4" class="inputPortLabel cell_$procdff$130">D</text>
    </g>
    <g transform="translate(30,10)" s:x="30" s:y="10" s:pid="out0" id="port_$procdff$130~Q">
      <text x="5" y="-4" style="fill:#000; stroke:none" class="cell_$procdff$130">Q</text>
    </g>
  </g>
  <g s:type="generic" transform="translate(102,457.5)" s:width="30" s:height="40" id="cell_$procdff$133">
    <text x="15" y="-4" class="nodelabel cell_$procdff$133" s:attribute="ref">$adff</text>
    <rect width="30" height="60" s:generic="body" class="cell_$procdff$133"/>
    <g transform="translate(0,10)" s:x="0" s:y="10" s:pid="in0" id="port_$procdff$133~ARST">
      <text x="-3" y="-4" class="inputPortLabel cell_$procdff$133">ARST</text>
    </g>
    <g transform="translate(0,30)" s:x="0" s:y="10" s:pid="in0" id="port_$procdff$133~CLK">
      <text x="-3" y="-4" class="inputPortLabel cell_$procdff$133">CLK</text>
    </g>
    <g transform="translate(0,50)" s:x="0" s:y="10" s:pid="in0" id="port_$procdff$133~D">
      <text x="-3" y="-4" class="inputPortLabel cell_$procdff$133">D</text>
    </g>
    <g transform="translate(30,10)" s:x="30" s:y="10" s:pid="out0" id="port_$procdff$133~Q">
      <text x="5" y="-4" style="fill:#000; stroke:none" class="cell_$procdff$133">Q</text>
    </g>
  </g>
  <g s:type="generic" transform="translate(666,354.5)" s:width="30" s:height="40" id="cell_e_count">
    <text x="15" y="-4" class="nodelabel cell_e_count" s:attribute="ref">energy_count_next</text>
    <rect width="30" height="60" s:generic="body" class="cell_e_count"/>
    <g transform="translate(0,10)" s:x="0" s:y="10" s:pid="in0" id="port_e_count~old_clk">
      <text x="-3" y="-4" class="inputPortLabel cell_e_count">old_clk</text>
    </g>
    <g transform="translate(0,30)" s:x="0" s:y="10" s:pid="in0" id="port_e_count~old_energy">
      <text x="-3" y="-4" class="inputPortLabel cell_e_count">old_energy</text>
    </g>
    <g transform="translate(0,50)" s:x="0" s:y="10" s:pid="in0" id="port_e_count~people_count">
      <text x="-3" y="-4" class="inputPortLabel cell_e_count">people_count</text>
    </g>
    <g transform="translate(30,10)" s:x="30" s:y="10" s:pid="out0" id="port_e_count~next_clk">
      <text x="5" y="-4" style="fill:#000; stroke:none" class="cell_e_count">next_clk</text>
    </g>
    <g transform="translate(30,30)" s:x="30" s:y="10" s:pid="out0" id="port_e_count~next_energy">
      <text x="5" y="-4" style="fill:#000; stroke:none" class="cell_e_count">next_energy</text>
    </g>
  </g>
  <g s:type="generic" transform="translate(478,239)" s:width="30" s:height="40" id="cell_energy">
    <text x="15" y="-4" class="nodelabel cell_energy" s:attribute="ref">sevenseg</text>
    <rect width="30" height="20" s:generic="body" class="cell_energy"/>
    <g transform="translate(0,10)" s:x="0" s:y="10" s:pid="in0" id="port_energy~data">
      <text x="-3" y="-4" class="inputPortLabel cell_energy">data</text>
    </g>
    <g transform="translate(30,10)" s:x="30" s:y="10" s:pid="out0" id="port_energy~segments">
      <text x="5" y="-4" style="fill:#000; stroke:none" class="cell_energy">segments</text>
    </g>
  </g>
  <g s:type="generic" transform="translate(672,542)" s:width="30" s:height="40" id="cell_p_count">
    <text x="15" y="-4" class="nodelabel cell_p_count" s:attribute="ref">people_count_next</text>
    <rect width="30" height="60" s:generic="body" class="cell_p_count"/>
    <g transform="translate(0,10)" s:x="0" s:y="10" s:pid="in0" id="port_p_count~current_count">
      <text x="-3" y="-4" class="inputPortLabel cell_p_count">current_count</text>
    </g>
    <g transform="translate(0,30)" s:x="0" s:y="10" s:pid="in0" id="port_p_count~switch_A">
      <text x="-3" y="-4" class="inputPortLabel cell_p_count">switch_A</text>
    </g>
    <g transform="translate(0,50)" s:x="0" s:y="10" s:pid="in0" id="port_p_count~switch_B">
      <text x="-3" y="-4" class="inputPortLabel cell_p_count">switch_B</text>
    </g>
    <g transform="translate(30,10)" s:x="30" s:y="10" s:pid="out0" id="port_p_count~next_count">
      <text x="5" y="-4" style="fill:#000; stroke:none" class="cell_p_count">next_count</text>
    </g>
  </g>
  <g s:type="generic" transform="translate(478,109)" s:width="30" s:height="40" id="cell_people">
    <text x="15" y="-4" class="nodelabel cell_people" s:attribute="ref">sevenseg</text>
    <rect width="30" height="20" s:generic="body" class="cell_people"/>
    <g transform="translate(0,10)" s:x="0" s:y="10" s:pid="in0" id="port_people~data">
      <text x="-3" y="-4" class="inputPortLabel cell_people">data</text>
    </g>
    <g transform="translate(30,10)" s:x="30" s:y="10" s:pid="out0" id="port_people~segments">
      <text x="5" y="-4" style="fill:#000; stroke:none" class="cell_people">segments</text>
    </g>
  </g>
  <g s:type="inputExt" transform="translate(12,271)" s:width="30" s:height="20" id="cell_clk">
    <text x="15" y="-4" class="nodelabel cell_clk" s:attribute="ref">clk</text>
    <s:alias val="$_inputExt_"/>
    <path d="M0,0 L0,20 L15,20 L30,10 L15,0 Z" class="cell_clk"/>
    <g s:x="28" s:y="10" s:pid="Y"/>
  </g>
  <g s:type="inputExt" transform="translate(12,206)" s:width="30" s:height="20" id="cell_reset">
    <text x="15" y="-4" class="nodelabel cell_reset" s:attribute="ref">reset</text>
    <s:alias val="$_inputExt_"/>
    <path d="M0,0 L0,20 L15,20 L30,10 L15,0 Z" class="cell_reset"/>
    <g s:x="28" s:y="10" s:pid="Y"/>
  </g>
  <g s:type="inputExt" transform="translate(478,562.5)" s:width="30" s:height="20" id="cell_switchA">
    <text x="15" y="-4" class="nodelabel cell_switchA" s:attribute="ref">switchA</text>
    <s:alias val="$_inputExt_"/>
    <path d="M0,0 L0,20 L15,20 L30,10 L15,0 Z" class="cell_switchA"/>
    <g s:x="28" s:y="10" s:pid="Y"/>
  </g>
  <g s:type="inputExt" transform="translate(478,627.5)" s:width="30" s:height="20" id="cell_switchB">
    <text x="15" y="-4" class="nodelabel cell_switchB" s:attribute="ref">switchB</text>
    <s:alias val="$_inputExt_"/>
    <path d="M0,0 L0,20 L15,20 L30,10 L15,0 Z" class="cell_switchB"/>
    <g s:x="28" s:y="10" s:pid="Y"/>
  </g>
  <g s:type="outputExt" transform="translate(672,109.5)" s:width="30" s:height="20" id="cell_seg_people">
    <text x="15" y="-4" class="nodelabel cell_seg_people" s:attribute="ref">seg_people</text>
    <s:alias val="$_outputExt_"/>
    <path d="M30,0 L30,20 L15,20 L0,10 L15,0 Z" class="cell_seg_people"/>
    <g s:x="0" s:y="10" s:pid="A"/>
  </g>
  <g s:type="outputExt" transform="translate(672,239.5)" s:width="30" s:height="20" id="cell_seg_energy">
    <text x="15" y="-4" class="nodelabel cell_seg_energy" s:attribute="ref">seg_energy</text>
    <s:alias val="$_outputExt_"/>
    <path d="M30,0 L30,20 L15,20 L0,10 L15,0 Z" class="cell_seg_energy"/>
    <g s:x="0" s:y="10" s:pid="A"/>
  </g>
  <g s:type="outputExt" transform="translate(672,304.5)" s:width="30" s:height="20" id="cell_green_leds">
    <text x="15" y="-4" class="nodelabel cell_green_leds" s:attribute="ref">green_leds</text>
    <s:alias val="$_outputExt_"/>
    <path d="M30,0 L30,20 L15,20 L0,10 L15,0 Z" class="cell_green_leds"/>
    <g s:x="0" s:y="10" s:pid="A"/>
  </g>
  <g s:type="outputExt" transform="translate(672,174.5)" s:width="30" s:height="20" id="cell_red_leds">
    <text x="15" y="-4" class="nodelabel cell_red_leds" s:attribute="ref">red_leds</text>
    <s:alias val="$_outputExt_"/>
    <path d="M30,0 L30,20 L15,20 L0,10 L15,0 Z" class="cell_red_leds"/>
    <g s:x="0" s:y="10" s:pid="A"/>
  </g>
  <g s:type="outputExt" transform="translate(672,22)" s:width="30" s:height="20" id="cell_room_full">
    <text x="15" y="-4" class="nodelabel cell_room_full" s:attribute="ref">room_full</text>
    <s:alias val="$_outputExt_"/>
    <path d="M30,0 L30,20 L15,20 L0,10 L15,0 Z" class="cell_room_full"/>
    <g s:x="0" s:y="10" s:pid="A"/>
  </g>
  <g s:type="split" transform="translate(209,29)" s:width="5" s:height="40" id="cell_$split$,27,20,21,22,23,">
    <rect width="5" height="120" class="splitjoinBody" s:generic="body"/>
    <s:alias val="$_split_"/>
    <g s:x="0" s:y="20" s:pid="in"/>
    <g transform="translate(4,10)" s:x="4" s:y="10" s:pid="out0">
      <text x="5" y="-4">3</text>
    </g>
    <g transform="translate(4,30)" s:x="4" s:y="10" s:pid="out0">
      <text x="5" y="-4">2</text>
    </g>
    <g transform="translate(4,50)" s:x="4" s:y="10" s:pid="out0">
      <text x="5" y="-4">1</text>
    </g>
    <g transform="translate(4,70)" s:x="4" s:y="10" s:pid="out0">
      <text x="5" y="-4">0</text>
    </g>
    <g transform="translate(4,90)" s:x="4" s:y="10" s:pid="out0">
      <text x="5" y="-4">0:3</text>
    </g>
    <g transform="translate(4,110)" s:x="4" s:y="10" s:pid="out0">
      <text x="5" y="-4">1:4</text>
    </g>
  </g>
  <g s:type="split" transform="translate(394,239)" s:width="5" s:height="40" id="cell_$split$,37,38,39,40,41,42,43,44,">
    <rect width="5" height="20" class="splitjoinBody" s:generic="body"/>
    <s:alias val="$_split_"/>
    <g s:x="0" s:y="20" s:pid="in"/>
    <g transform="translate(4,10)" s:x="4" s:y="10" s:pid="out0">
      <text x="5" y="-4">0:3</text>
    </g>
  </g>
  <line x1="213.5" x2="213.5" y1="39" y2="17" class="net_22"/>
  <line x1="213.5" x2="388" y1="17" y2="17" class="net_22"/>
  <line x1="213.5" x2="213.5" y1="39" y2="17" class="net_22"/>
  <line x1="213.5" x2="231" y1="17" y2="17" class="net_22"/>
  <line x1="231" x2="231" y1="17" y2="75.5" class="net_22"/>
  <circle cx="231" cy="17" r="2" style="fill:#000" class="net_22"/>
  <line x1="231" x2="286.6666666666667" y1="75.5" y2="75.5" class="net_22"/>
  <line x1="214" x2="363" y1="59.5" y2="59.5" class="net_21"/>
  <line x1="363" x2="363" y1="59.5" y2="32" class="net_21"/>
  <line x1="363" x2="388" y1="32" y2="32" class="net_21"/>
  <line x1="214" x2="231" y1="79.5" y2="79.5" class="net_20"/>
  <line x1="231" x2="231" y1="79.5" y2="90.5" class="net_20"/>
  <line x1="231" x2="286.6666666666667" y1="90.5" y2="90.5" class="net_20"/>
  <line x1="316.6666666666667" x2="388" y1="83" y2="83" class="net_26"/>
  <line x1="214" x2="231" y1="99.5" y2="99.5" class="net_27"/>
  <line x1="231" x2="231" y1="99.5" y2="105.5" class="net_27"/>
  <line x1="231" x2="363" y1="105.5" y2="105.5" class="net_27"/>
  <line x1="363" x2="363" y1="105.5" y2="98" class="net_27"/>
  <line x1="363" x2="388" y1="98" y2="98" class="net_27"/>
  <line x1="418" x2="489.3333333333333" y1="24.5" y2="24.5" class="net_25"/>
  <line x1="418" x2="428" y1="90.5" y2="90.5" class="net_28"/>
  <line x1="428" x2="428" y1="90.5" y2="39.5" class="net_28"/>
  <line x1="428" x2="489.3333333333333" y1="39.5" y2="39.5" class="net_28"/>
  <line x1="40" x2="281" y1="216" y2="216" class="net_3"/>
  <line x1="40" x2="62" y1="216" y2="216" class="net_3"/>
  <line x1="62" x2="62" y1="216" y2="436.5" class="net_3"/>
  <circle cx="62" cy="216" r="2" style="fill:#000" class="net_3"/>
  <circle cx="62" cy="436.5" r="2" style="fill:#000" class="net_3"/>
  <line x1="62" x2="486" y1="436.5" y2="436.5" class="net_3"/>
  <line x1="40" x2="62" y1="216" y2="216" class="net_3"/>
  <line x1="62" x2="62" y1="216" y2="468" class="net_3"/>
  <line x1="62" x2="102" y1="468" y2="468" class="net_3"/>
  <line x1="40" x2="231" y1="281" y2="281" class="net_2"/>
  <line x1="231" x2="231" y1="281" y2="236" class="net_2"/>
  <line x1="231" x2="281" y1="236" y2="236" class="net_2"/>
  <line x1="40" x2="52" y1="281" y2="281" class="net_2"/>
  <line x1="52" x2="52" y1="281" y2="530.5" class="net_2"/>
  <line x1="52" x2="428" y1="530.5" y2="530.5" class="net_2"/>
  <line x1="428" x2="428" y1="530.5" y2="456.5" class="net_2"/>
  <circle cx="52" cy="281" r="2" style="fill:#000" class="net_2"/>
  <line x1="428" x2="486" y1="456.5" y2="456.5" class="net_2"/>
  <line x1="40" x2="52" y1="281" y2="281" class="net_2"/>
  <line x1="52" x2="52" y1="281" y2="488" class="net_2"/>
  <circle cx="52" cy="488" r="2" style="fill:#000" class="net_2"/>
  <line x1="52" x2="102" y1="488" y2="488" class="net_2"/>
  <line x1="697" x2="784" y1="385" y2="385" class="net_29,30,31,32,33,34,35,36"/>
  <line x1="784" x2="784" y1="385" y2="334.5" class="net_29,30,31,32,33,34,35,36"/>
  <line x1="784" x2="241" y1="334.5" y2="334.5" class="net_29,30,31,32,33,34,35,36"/>
  <line x1="241" x2="241" y1="334.5" y2="256" class="net_29,30,31,32,33,34,35,36"/>
  <line x1="241" x2="281" y1="256" y2="256" class="net_29,30,31,32,33,34,35,36"/>
  <line x1="697" x2="774" y1="365" y2="365" class="net_45,46,47,48,49,50"/>
  <line x1="774" x2="774" y1="365" y2="499" class="net_45,46,47,48,49,50"/>
  <line x1="774" x2="438" y1="499" y2="499" class="net_45,46,47,48,49,50"/>
  <line x1="438" x2="438" y1="499" y2="476.5" class="net_45,46,47,48,49,50"/>
  <line x1="438" x2="486" y1="476.5" y2="476.5" class="net_45,46,47,48,49,50"/>
  <line x1="703" x2="774" y1="552.5" y2="552.5" class="net_57,58,59,60,61"/>
  <line x1="774" x2="774" y1="552.5" y2="657.5" class="net_57,58,59,60,61"/>
  <line x1="774" x2="62" y1="657.5" y2="657.5" class="net_57,58,59,60,61"/>
  <line x1="62" x2="62" y1="657.5" y2="508" class="net_57,58,59,60,61"/>
  <line x1="62" x2="102" y1="508" y2="508" class="net_57,58,59,60,61"/>
  <line x1="517" x2="568" y1="436.5" y2="436.5" class="net_51,52,53,54,55,56"/>
  <line x1="568" x2="568" y1="436.5" y2="365" class="net_51,52,53,54,55,56"/>
  <line x1="568" x2="666" y1="365" y2="365" class="net_51,52,53,54,55,56"/>
  <line x1="312" x2="363" y1="216" y2="216" class="net_37,38,39,40,41,42,43,44"/>
  <line x1="363" x2="363" y1="216" y2="345.5" class="net_37,38,39,40,41,42,43,44"/>
  <line x1="363" x2="578" y1="345.5" y2="345.5" class="net_37,38,39,40,41,42,43,44"/>
  <line x1="578" x2="578" y1="345.5" y2="385" class="net_37,38,39,40,41,42,43,44"/>
  <line x1="578" x2="666" y1="385" y2="385" class="net_37,38,39,40,41,42,43,44"/>
  <line x1="312" x2="363" y1="216" y2="216" class="net_37,38,39,40,41,42,43,44"/>
  <line x1="363" x2="363" y1="216" y2="272" class="net_37,38,39,40,41,42,43,44"/>
  <line x1="363" x2="394.5" y1="272" y2="272" class="net_37,38,39,40,41,42,43,44"/>
  <circle cx="363" cy="272" r="2" style="fill:#000" class="net_37,38,39,40,41,42,43,44"/>
  <line x1="394.5" x2="394.5" y1="272" y2="260" class="net_37,38,39,40,41,42,43,44"/>
  <line x1="133" x2="184" y1="468" y2="468" class="net_27,20,21,22,23"/>
  <line x1="184" x2="184" y1="468" y2="405" class="net_27,20,21,22,23"/>
  <circle cx="184" cy="468" r="2" style="fill:#000" class="net_27,20,21,22,23"/>
  <circle cx="184" cy="405" r="2" style="fill:#000" class="net_27,20,21,22,23"/>
  <line x1="184" x2="666" y1="405" y2="405" class="net_27,20,21,22,23"/>
  <line x1="133" x2="184" y1="468" y2="468" class="net_27,20,21,22,23"/>
  <line x1="184" x2="184" y1="468" y2="541.5" class="net_27,20,21,22,23"/>
  <line x1="184" x2="568" y1="541.5" y2="541.5" class="net_27,20,21,22,23"/>
  <line x1="568" x2="568" y1="541.5" y2="552.5" class="net_27,20,21,22,23"/>
  <line x1="568" x2="672" y1="552.5" y2="552.5" class="net_27,20,21,22,23"/>
  <line x1="133" x2="184" y1="468" y2="468" class="net_27,20,21,22,23"/>
  <line x1="184" x2="184" y1="468" y2="49.5" class="net_27,20,21,22,23"/>
  <line x1="184" x2="209" y1="49.5" y2="49.5" class="net_27,20,21,22,23"/>
  <line x1="399" x2="478" y1="249.5" y2="249.5" class="net_37,38,39,40"/>
  <line x1="506" x2="672" y1="572.5" y2="572.5" class="net_4"/>
  <line x1="506" x2="568" y1="637.5" y2="637.5" class="net_5"/>
  <line x1="568" x2="568" y1="637.5" y2="592.5" class="net_5"/>
  <line x1="568" x2="672" y1="592.5" y2="592.5" class="net_5"/>
  <line x1="214" x2="478" y1="119.5" y2="119.5" class="net_27,20,21,22"/>
  <line x1="509" x2="672" y1="119.5" y2="119.5" class="net_6,7,8,9,10,11,12"/>
  <line x1="509" x2="672" y1="249.5" y2="249.5" class="net_13,14,15,16,17,18,19"/>
  <line x1="213.5" x2="213.5" y1="140" y2="184.5" class="net_20,21,22,23"/>
  <line x1="213.5" x2="373" y1="184.5" y2="184.5" class="net_20,21,22,23"/>
  <line x1="373" x2="373" y1="184.5" y2="314.5" class="net_20,21,22,23"/>
  <circle cx="373" cy="184.5" r="2" style="fill:#000" class="net_20,21,22,23"/>
  <line x1="373" x2="672" y1="314.5" y2="314.5" class="net_20,21,22,23"/>
  <line x1="213.5" x2="213.5" y1="140" y2="184.5" class="net_20,21,22,23"/>
  <line x1="213.5" x2="672" y1="184.5" y2="184.5" class="net_20,21,22,23"/>
  <line x1="516.3333333333333" x2="672" y1="32" y2="32" class="net_24"/>
</svg>
